<svg xmlns="http://www.w3.org/2000/svg" viewBox="0 0 100 39.1" enable-background="new 0 0 100 39.1"><path fill="#32324A" d="M16.6 17.6h4.3v21.2h-4.7L4.4 22.9v15.9H0V17.6h5.1L16.6 33V17.6zm40 16.9l5.9-11.9h3.8l-8.1 16.2h-3.4l-7.9-16.2h4l5.7 11.9zM35.9 27L30 38.8h-3.8l8.1-16.2h3.4l7.9 16.2h-4L35.9 27zm36.7 11.8V22.6h3.7v16.2h-3.7zm23.9-.6c-1.5.6-3.4 1-5.5 1-2.6 0-5.3-.5-7.7-1.4l1.4-2.2c2.2.9 4.1 1.3 6.4 1.3 1.4 0 2.3-.2 3.1-.5 1-.4 1.5-1 1.5-1.8 0-1.2-1.1-1.9-3.7-2.4l-3-.6c-1.9-.4-3.4-1.1-4.2-2.1-.6-.7-.9-1.4-.9-2.2 0-2.9 3.3-4.9 7.9-4.9 2.7 0 5.6.6 7.5 1.6l-1.7 2.1c-1.9-.9-3.7-1.3-5.6-1.3-2.4 0-4 .8-4 2.1 0 1 .9 1.6 3.3 2.1l2.8.6c1.6.3 3.2.9 4.2 1.7.9.7 1.5 1.8 1.5 2.9.2 1.5-1.1 3.1-3.3 4z"/><path fill="#F47B20" d="M84.7 11.6c-.8 4.1-9.8 7.5-20.9 8.1l2.8-4.8c7.9-.7 13.7-2.8 13.9-5.3.2-3.1-8.6-5.6-19.7-5.6-3.7 0-7.2.3-10.2.8v-.3c2.3-.5 4.9-.8 7.6-1L60.9 0l2.4 3.3c12.7.1 22.3 3.8 21.4 8.3zm-23.9-.4c-1.9 0-3.5-.3-4.7-.7l4.7 8.7 5.4-8.9c-1.2.5-3.2.9-5.4.9z"/></svg>