<svg xmlns="http://www.w3.org/2000/svg" viewBox="0 0 188.8 33.7" enable-background="new 0 0 188.8 33.7"><path fill="#CBE085" d="M171.9 33.7h-155C7.6 33.7 0 26.1 0 16.9 0 7.6 7.6 0 16.9 0h155c9.3 0 16.9 7.6 16.9 16.9 0 9.2-7.6 16.8-16.9 16.8z"/><g fill="#424752"><path d="M71.2 17.5c0 .9-.2 1.8-.5 2.6s-.7 1.4-1.3 2c-.5.6-1.2 1-2 1.3s-1.6.5-2.6.5h-4.7V11.2H65c.9 0 1.8.2 2.6.5s1.4.7 2 1.3c.5.6 1 1.2 1.3 2s.3 1.6.3 2.5zm-1.7 0c0-.8-.1-1.5-.3-2.1s-.5-1.1-.9-1.6c-.4-.4-.9-.7-1.4-1-.6-.2-1.2-.3-1.9-.3h-3v9.9h3c.7 0 1.3-.1 1.9-.3.6-.2 1-.5 1.4-1 .4-.4.7-.9.9-1.6s.3-1.2.3-2zM81.5 11.2v1.4h-6.1v4.2h4.9v1.3h-4.9v4.3h6.1v1.4h-7.8V11.2h7.8zM92.5 11.2v1.4h-4.1v11.2h-1.7V12.6h-4.1v-1.4h9.9zM103.4 23.9h-1.3c-.2 0-.3 0-.4-.1-.1-.1-.2-.2-.2-.3l-1.2-3.1h-5.7l-1.2 3.1c0 .1-.1.2-.2.3s-.2.1-.4.1h-1.3l5.1-12.7h1.7l5.1 12.7zm-8.3-4.7h4.7l-2-5.2c-.1-.2-.1-.3-.2-.5s-.1-.4-.2-.6c-.1.2-.1.4-.2.7-.1.2-.1.4-.2.5l-1.9 5.1zM106.8 23.9h-1.7V11.2h1.7v12.7zM111.8 22.4h5.5v1.4h-7.2V11.2h1.7v11.2zM125.6 13.2c-.1.1-.1.2-.2.2s-.1.1-.2.1-.2 0-.4-.2c-.1-.1-.3-.2-.5-.3-.2-.1-.4-.2-.7-.3s-.6-.2-1-.2-.7.1-1 .2-.5.2-.7.4c-.2.2-.3.4-.4.6-.1.2-.2.5-.2.8 0 .4.1.6.3.9.2.2.4.4.7.6s.6.3 1 .4c.4.1.7.2 1.1.4.4.1.8.3 1.1.4.4.2.7.4 1 .6.3.2.5.6.7.9s.3.8.3 1.3c0 .6-.1 1.1-.3 1.6s-.5.9-.8 1.3c-.4.4-.8.6-1.3.8-.5.2-1.1.3-1.8.3-.8 0-1.6-.1-2.2-.4-.7-.3-1.2-.7-1.7-1.2l.5-.8c0-.1.1-.1.2-.2.1 0 .1-.1.2-.1s.2 0 .3.1c.1.1.2.1.3.2.1.1.3.2.4.3.2.1.3.2.5.3.2.1.4.2.7.2.3.1.6.1.9.1.4 0 .8-.1 1.1-.2.3-.1.6-.3.8-.5.2-.2.4-.4.5-.7.1-.3.2-.6.2-.9 0-.4-.1-.7-.3-.9-.2-.2-.4-.4-.7-.6s-.6-.3-1-.4c-.4-.1-.7-.2-1.1-.4-.4-.1-.7-.3-1.1-.4-.4-.2-.7-.4-1-.6-.3-.3-.5-.6-.7-1s-.3-.9-.3-1.4c0-.4.1-.9.3-1.3.2-.4.4-.8.8-1.1.3-.3.7-.6 1.2-.8.5-.2 1-.3 1.7-.3s1.4.1 1.9.3 1.1.5 1.5 1l-.6.9z"/></g><g stroke="#3E3E42" stroke-width="2.242" stroke-linecap="round" stroke-linejoin="round" stroke-miterlimit="10" fill="none"><path d="M166.1 16.9L156.2 7M166.1 17l-9.9 9.9"/></g></svg>