<svg xmlns="http://www.w3.org/2000/svg" viewBox="0 0 960 560" enable-background="new 0 0 960 560"><g stroke="#fff" stroke-width="2.024" stroke-linecap="round" stroke-linejoin="round" stroke-miterlimit="10" fill="none"><path d="M485.7 255.4h4v5.2c0 8.4-6.8 15.2-15.2 15.2-8.4 0-15.2-6.8-15.2-15.2v-5.2h4"/><path d="M485.7 260.6c0 6.1-5 11.1-11.1 11.1s-11.1-5-11.1-11.1v-10.3c0-6.1 5-11.1 11.1-11.1s11.1 5 11.1 11.1v10.3zM479.6 247.3v16.3M463.5 255.4h8.1M463.5 251.3h8.1M464.5 247.3h7.1M464.5 263.5h7.1M463.5 259.4h8.1M474.6 279.6v-3"/><path d="M461.4 283.7c0-2.2 1.8-4 4-4h18.2c2.2 0 4 1.8 4 4v2h-26.3v-2z"/></g><g fill="#fff"><path d="M441.8 304.2c-.1.1-.1.2-.2.2s-.2-.1-.3-.2c-.1-.1-.3-.2-.5-.4-.2-.1-.5-.3-.8-.4-.3-.1-.7-.2-1.1-.2-.5 0-.9.1-1.2.2s-.6.3-.9.5c-.2.2-.4.5-.5.8-.1.3-.2.6-.2.9 0 .4.1.8.3 1.1.2.3.4.5.7.7.3.2.6.4 1 .5.4.1.8.3 1.2.4.4.1.8.3 1.2.4.4.2.7.4 1 .6s.5.5.7.9c.2.3.3.8.3 1.3s-.1 1-.3 1.5c-.2.5-.4.9-.8 1.2-.3.3-.8.6-1.3.8-.5.2-1.1.3-1.7.3-.8 0-1.5-.1-2.1-.4-.6-.3-1.1-.7-1.6-1.2l.2-.4c.1-.1.2-.1.2-.1.1 0 .1 0 .2.1l.3.3c.1.1.3.2.4.3l.6.3c.2.1.5.2.8.3.3.1.6.1 1 .1.5 0 .9-.1 1.3-.2s.7-.4 1-.6.5-.6.6-.9c.1-.4.2-.7.2-1.1 0-.4-.1-.8-.3-1.1-.2-.3-.4-.5-.7-.7s-.6-.4-1-.5c-.4-.1-.8-.3-1.2-.4-.4-.1-.8-.3-1.2-.4-.4-.2-.7-.3-1-.6-.3-.2-.5-.5-.7-.9-.2-.4-.3-.8-.3-1.3 0-.4.1-.8.2-1.2s.4-.7.7-1 .7-.5 1.1-.7c.5-.2 1-.3 1.5-.3.6 0 1.2.1 1.7.3.5.2 1 .5 1.4.9l.1.3zM446.1 310.2v5h-.9v-12.5h3.2c1.5 0 2.6.3 3.3 1 .7.6 1.1 1.6 1.1 2.8 0 .5-.1 1.1-.3 1.5s-.5.9-.9 1.2c-.4.3-.8.6-1.4.8s-1.2.3-1.9.3h-2.2zm0-.8h2.3c.5 0 1-.1 1.5-.2.4-.2.8-.4 1.1-.6.3-.3.5-.6.7-1 .2-.4.2-.8.2-1.2 0-1-.3-1.7-.9-2.2-.6-.5-1.5-.8-2.6-.8h-2.3v6zM462.9 302.7v.8h-6.6v5.1h5.5v.7h-5.5v5.2h6.6v.8h-7.5v-12.5h7.5zM475.2 315.2h-.7c-.1 0-.2 0-.2-.1-.1 0-.1-.1-.1-.2l-1.5-3.6h-6.2L465 315c0 .1-.1.1-.1.2-.1 0-.1.1-.2.1h-.7l5.1-12.5h.9l5.2 12.4zm-8.4-4.5h5.6l-2.5-6.3c-.1-.2-.2-.5-.3-.7 0 .1-.1.3-.1.4 0 .1-.1.2-.1.3l-2.6 6.3zM478.2 308.5h1.2s.1-.1.2-.1.1-.1.2-.2l5.1-5.2c.1-.1.2-.2.3-.2.1 0 .2-.1.3-.1h.7l-5.5 5.6-.3.3c-.1.1-.2.1-.3.2.1 0 .2.1.3.2l.3.3 5.8 6h-.7c-.2 0-.3 0-.3-.1-.1 0-.1-.1-.2-.2l-5.3-5.4-.2-.2c-.1 0-.1-.1-.2-.1s-.1-.1-.2-.1h-1.1v6h-.9v-12.5h.9v5.8zM496 302.7v.8h-6.6v5.1h5.5v.7h-5.5v5.2h6.6v.8h-7.5v-12.5h7.5zM499.7 309.5v5.7h-.9v-12.5h3.2c1.4 0 2.5.3 3.2.8s1.1 1.4 1.1 2.5c0 .5-.1.9-.3 1.3s-.4.7-.7 1-.7.5-1.1.7c-.4.2-.9.3-1.5.4.1.1.3.2.4.4l4.3 5.4h-1.1c-.1 0-.1-.1-.2-.2l-4-5.1c0-.1-.1-.1-.1-.2 0 0-.1-.1-.2-.1s-.1 0-.2-.1H499.7zm0-.6h2.2c.6 0 1.1-.1 1.5-.2.4-.1.8-.3 1.1-.6.3-.2.5-.5.7-.9.2-.3.2-.7.2-1.2 0-.9-.3-1.6-.9-2s-1.4-.6-2.5-.6h-2.3v5.5zM515.6 304.2c-.1.1-.1.2-.2.2s-.2-.1-.3-.2-.3-.2-.5-.4-.5-.3-.8-.4-.7-.2-1.1-.2-.9.1-1.2.2c-.3.1-.6.3-.9.5-.2.2-.4.5-.5.8s-.2.6-.2.9c0 .4.1.8.3 1.1.2.3.4.5.7.7.3.2.6.4 1 .5s.8.3 1.2.4c.4.1.8.3 1.2.4.4.2.7.4 1 .6s.5.5.7.9c.2.3.3.8.3 1.3s-.1 1-.3 1.5c-.2.5-.4.9-.8 1.2-.3.3-.8.6-1.3.8-.5.2-1.1.3-1.7.3-.8 0-1.5-.1-2.1-.4s-1.1-.7-1.6-1.2l.2-.4c.1-.1.2-.1.2-.1.1 0 .1 0 .2.1l.3.3c.1.1.3.2.4.3s.4.2.6.3c.2.1.5.2.8.3.3.1.6.1 1 .1.5 0 .9-.1 1.3-.2s.7-.4 1-.6.5-.6.6-.9c.1-.4.2-.7.2-1.1 0-.4-.1-.8-.3-1.1s-.4-.5-.7-.7-.6-.4-1-.5c-.4-.1-.8-.3-1.2-.4-.4-.1-.8-.3-1.2-.4s-.7-.3-1-.6c-.3-.2-.5-.5-.7-.9-.2-.4-.3-.8-.3-1.3 0-.4.1-.8.2-1.2s.4-.7.7-1 .7-.5 1.1-.7c.5-.2 1-.3 1.5-.3.6 0 1.2.1 1.7.3.5.2 1 .5 1.4.9l.1.3z"/></g></svg>