<svg xmlns="http://www.w3.org/2000/svg" viewBox="0 0 960 560" enable-background="new 0 0 960 560"><g stroke="#fff" stroke-width="2.03" stroke-linecap="round" stroke-linejoin="round" stroke-miterlimit="10" fill="none"><path d="M478.2 260.2l-5.6 1.4 1.4-5.6 13.9-13.8 4.1 4.1zM492 246.3l2.1-2.1c1.1-1.1 1.1-3 0-4.2-1.1-1.1-3-1.1-4.2 0l-2.1 2.1M495 249.4v36.5h-38.6v-46.7h28.4M462.5 249.4h17.3M462.5 255.5h11.2M462.5 261.6h6.1"/></g><g fill="#fff"><path d="M451.2 305.1c-.1.1-.1.2-.2.2s-.2-.1-.3-.2c-.1-.1-.3-.2-.5-.4-.2-.1-.5-.3-.8-.4-.3-.1-.7-.2-1.1-.2s-.9.1-1.2.2c-.3.1-.6.3-.9.5-.2.2-.4.5-.5.8s-.2.6-.2.9c0 .4.1.8.3 1.1.2.3.4.5.7.7.3.2.6.4 1 .5.4.1.8.3 1.2.4.4.1.8.3 1.2.4.4.2.7.4 1 .6.3.2.5.5.7.9.2.3.3.8.3 1.3s-.1 1-.3 1.5c-.2.5-.4.9-.8 1.2-.3.3-.8.6-1.3.8-.5.2-1.1.3-1.7.3-.8 0-1.5-.1-2.1-.4s-1.1-.7-1.6-1.2l.2-.4c.1-.1.2-.1.2-.1.1 0 .1 0 .2.1l.3.3s.3.2.4.3.4.2.6.3c.2.1.5.2.8.3.3.1.6.1 1 .1.5 0 .9-.1 1.3-.2s.7-.4 1-.6.5-.6.6-.9c.1-.4.2-.7.2-1.1 0-.4-.1-.8-.3-1.1-.2-.3-.4-.5-.7-.7-.3-.2-.6-.4-1-.5-.4-.1-.8-.3-1.2-.4-.4-.1-.8-.3-1.2-.4-.4-.2-.7-.3-1-.6s-.5-.5-.7-.9c-.2-.4-.3-.8-.3-1.3 0-.4.1-.8.2-1.2.2-.4.4-.7.7-1 .3-.3.7-.5 1.1-.7.5-.2 1-.3 1.5-.3.6 0 1.2.1 1.7.3.5.2 1 .5 1.4.9l.1.3zM459.1 315.5c.6 0 1.1-.1 1.6-.3.5-.2.9-.5 1.2-.9.3-.4.6-.8.8-1.3.2-.5.3-1 .3-1.6v-7.7h.9v7.7c0 .7-.1 1.3-.3 1.9-.2.6-.5 1.1-.9 1.6-.4.4-.9.8-1.5 1-.6.3-1.2.4-2 .4-.7 0-1.4-.1-2-.4-.6-.3-1.1-.6-1.5-1-.4-.4-.7-1-.9-1.6-.2-.6-.3-1.2-.3-1.9v-7.7h.9v7.7c0 .6.1 1.1.3 1.6s.4.9.8 1.3c.3.4.7.7 1.2.9.3.2.8.3 1.4.3zM468.3 310.5v5.7h-.9v-12.5h3.2c1.4 0 2.5.3 3.2.8.7.6 1.1 1.4 1.1 2.5 0 .5-.1.9-.3 1.3s-.4.7-.7 1-.7.5-1.1.7c-.4.2-.9.3-1.5.4.1.1.3.2.4.4l4.3 5.4h-1.1c-.1 0-.1-.1-.2-.2l-4-5.1c0-.1-.1-.1-.1-.2 0 0-.1-.1-.2-.1s-.1 0-.2-.1H468.3zm0-.7h2.2c.6 0 1.1-.1 1.5-.2s.8-.3 1.1-.6.5-.5.7-.9c.2-.3.2-.7.2-1.2 0-.9-.3-1.6-.9-2s-1.4-.6-2.5-.6h-2.3v5.5zM476.3 303.6h.7c.1 0 .2 0 .2.1.1 0 .1.1.1.2l4.3 10.4c0 .1.1.3.1.4s.1.3.1.5c0-.2.1-.3.1-.5 0-.1.1-.3.1-.4l4.3-10.4c0-.1.1-.1.1-.2.1 0 .1-.1.2-.1h.7l-5.2 12.5h-.8l-5-12.5zM497 303.6v.8h-6.6v5.1h5.5v.7h-5.5v5.2h6.6v.8h-7.5v-12.5h7.5zM503.7 311v5.2h-.9V311l-4.6-7.4h.8c.1 0 .2 0 .2.1.1 0 .1.1.1.2l3.6 5.8c.1.1.1.3.2.4.1.1.1.3.2.4 0-.1.1-.2.2-.4.1-.1.1-.3.2-.4l3.6-5.8c0-.1.1-.1.1-.2.1 0 .1-.1.2-.1h.8l-4.7 7.4z"/></g></svg>