<svg xmlns="http://www.w3.org/2000/svg" viewBox="0 0 960 560" enable-background="new 0 0 960 560"><g stroke="#fff" stroke-width="2.042" stroke-linecap="round" stroke-linejoin="round" stroke-miterlimit="10" fill="none"><path d="M465.6 269.8c1.1 0 2-.9 2-2v-3.1l-4.1-2 1.1-2v-4.1c0-1.7-1.4-3.1-3.1-3.1-1.7 0-3.1 1.4-3.1 3.1v4.1l1.1 2-4.1 2v3.1c0 1.1.9 2 2 2h8.2zM473.8 257.6h16.3M473.8 263.7h16.3M473.8 269.8h16.3M496.2 282.1H482V276h-4.1v6.1h-10.2V276h-4.1v6.1h-14.3v-38.8h24.5v6.1h22.4v32.7"/></g><g fill="#fff"><path d="M437.7 312.5h-.7c-.1 0-.2 0-.2-.1-.1 0-.1-.1-.1-.2l-1.5-3.6H429l-1.5 3.6c0 .1-.1.1-.1.2-.1 0-.1.1-.2.1h-.7l5.1-12.5h.9l5.2 12.5zm-8.3-4.5h5.6l-2.5-6.3c-.1-.2-.2-.5-.3-.7 0 .1-.1.3-.1.4 0 .1-.1.2-.1.3l-2.6 6.3zM446.7 300v.8h-4.4v11.8h-.9v-11.8H437v-.8h9.7zM457 300v.8h-4.4v11.8h-.9v-11.8h-4.4v-.8h9.7zM466.6 300v.8H460v5.1h5.5v.7H460v5.2h6.6v.8h-7.5V300h7.5zM470 300l.1.1 8.1 10.9v-11h.8v12.5H478.4l-.1-.1-8.1-10.9v11h-.8V300h.6zM493.3 306.3c0 1-.1 1.8-.4 2.6-.3.8-.7 1.4-1.2 2-.5.5-1.2 1-1.9 1.2-.7.3-1.5.4-2.4.4h-4.6V300h4.6c.9 0 1.7.1 2.4.4.7.3 1.4.7 1.9 1.2s.9 1.2 1.2 2c.2.8.4 1.7.4 2.7zm-1 0c0-.9-.1-1.7-.4-2.3s-.6-1.3-1-1.7c-.4-.5-1-.8-1.6-1.1-.6-.2-1.3-.4-2.1-.4h-3.7v11.1h3.7c.7 0 1.4-.1 2.1-.4.6-.2 1.2-.6 1.6-1.1s.8-1 1-1.7c.3-.8.4-1.6.4-2.4zM503.7 300v.8h-6.6v5.1h5.5v.7h-5.5v5.2h6.6v.8h-7.5V300h7.5zM513.9 300v.8h-6.6v5.1h5.5v.7h-5.5v5.2h6.6v.8h-7.5V300h7.5zM522.8 301.5c-.1.1-.1.2-.2.2s-.2-.1-.3-.2c-.1-.1-.3-.2-.5-.4-.2-.1-.5-.3-.8-.4-.3-.1-.7-.2-1.1-.2-.5 0-.9.1-1.2.2-.3.1-.6.3-.9.5-.2.2-.4.5-.5.8-.1.3-.2.6-.2.9 0 .4.1.8.3 1.1s.4.5.7.7c.3.2.6.4 1 .5.4.1.8.3 1.2.4.4.1.8.3 1.2.4s.7.4 1 .6.5.5.7.9c.2.3.3.8.3 1.3s-.1 1-.3 1.5c-.2.5-.4.9-.8 1.2-.3.3-.8.6-1.3.8-.5.2-1.1.3-1.7.3-.8 0-1.5-.1-2.1-.4-.6-.3-1.1-.7-1.6-1.2l.2-.4c.1-.1.2-.1.2-.1.1 0 .1 0 .2.1l.3.3c.1.1.3.2.4.3l.6.3c.2.1.5.2.8.3.3.1.6.1 1 .1.5 0 .9-.1 1.3-.2s.7-.4 1-.6.5-.6.6-.9c.1-.4.2-.7.2-1.1 0-.4-.1-.8-.3-1.1-.2-.3-.4-.5-.7-.7s-.6-.4-1-.5-.8-.3-1.2-.4-.8-.3-1.2-.4c-.4-.2-.7-.3-1-.6-.3-.2-.5-.5-.7-.9s-.3-.8-.3-1.3c0-.4.1-.8.2-1.2s.4-.7.7-1 .7-.5 1.1-.7 1-.3 1.5-.3c.6 0 1.2.1 1.7.3.5.2 1 .5 1.4.9l.1.3z"/></g></svg>