<svg xmlns="http://www.w3.org/2000/svg" viewBox="0 0 960 560" enable-background="new 0 0 960 560"><g stroke="#fff" stroke-width="2.081" stroke-linecap="round" stroke-linejoin="round" stroke-miterlimit="10" fill="none"><path d="M461.3 249c0 1.1.9 2.1 2.1 2.1 1.1 0 2.1-.9 2.1-2.1v-8.3c0-1.1-.9-2.1-2.1-2.1-1.2 0-2.1.9-2.1 2.1v8.3zM484.2 249c0 1.1.9 2.1 2.1 2.1 1.1 0 2.1-.9 2.1-2.1v-8.3c0-1.1-.9-2.1-2.1-2.1-1.2 0-2.1.9-2.1 2.1v8.3zM486.3 259.4h6.2v6.2h-6.2zM471.8 259.4h6.2v6.2h-6.2zM457.2 271.9h6.2v6.2h-6.2zM471.7 271.9h6.2v6.2h-6.2zM486.3 271.9h6.2v6.2h-6.2zM457.2 265.7l6.2-6.3M457.2 259.4l6.2 6.3M478 259.4M471.7 265.7M478 265.7M471.7 259.4M488.4 244.9h10.4v41.6h-47.9v-41.6h10.4M465.5 244.9h18.7"/></g><g fill="#fff"><path d="M436.4 316.4h-.7c-.1 0-.2 0-.2-.1-.1 0-.1-.1-.1-.2l-1.5-3.6h-6.2l-1.5 3.6c0 .1-.1.1-.1.2-.1 0-.1.1-.2.1h-.7l5.1-12.5h.9l5.2 12.5zm-8.4-4.5h5.6l-2.5-6.3c-.1-.2-.2-.5-.3-.7 0 .1-.1.3-.1.4s-.1.2-.1.3l-2.6 6.3zM446.2 316.2c-.7.2-1.5.4-2.4.4-1 0-1.9-.2-2.7-.5-.8-.3-1.5-.7-2-1.3s-1-1.2-1.3-2c-.3-.8-.4-1.7-.4-2.6s.1-1.8.4-2.6c.3-.8.7-1.5 1.3-2s1.2-1 2-1.3c.8-.3 1.6-.5 2.6-.5.5 0 .9 0 1.3.1s.8.2 1.1.3c.3.1.7.3 1 .5l.9.6-.2.4c-.1.1-.2.2-.4.1-.1 0-.2-.1-.4-.2s-.4-.3-.7-.4c-.3-.1-.6-.3-1.1-.4-.4-.1-.9-.2-1.6-.2-.8 0-1.6.1-2.2.4-.7.3-1.2.6-1.7 1.1s-.8 1.1-1.1 1.8-.4 1.5-.4 2.3c0 .9.1 1.7.4 2.4s.6 1.3 1.1 1.8 1.1.9 1.7 1.1 1.4.4 2.3.4c.4 0 .7 0 1-.1.3 0 .6-.1.9-.2.3-.1.6-.2.8-.3s.5-.3.8-.4v-3.4H445c-.1 0-.1 0-.2-.1l-.1-.1v-.5h3.5v4.5c-.6.3-1.3.7-2 .9zM458.7 303.9v.8h-6.6v5.1h5.5v.7h-5.5v5.2h6.6v.8h-7.5V304h7.5zM462.1 303.9l.1.1 8.1 10.9v-11h.8v12.5H470.5l-.1-.1-8.1-10.9v11h-.8v-12.5h.6zM485.4 310.1c0 1-.1 1.8-.4 2.6s-.7 1.4-1.2 2c-.5.5-1.2 1-1.9 1.2-.7.3-1.5.4-2.4.4h-4.6v-12.5h4.6c.9 0 1.7.1 2.4.4.7.3 1.4.7 1.9 1.2s.9 1.2 1.2 2 .4 1.8.4 2.7zm-.9 0c0-.9-.1-1.7-.4-2.3s-.6-1.3-1-1.7c-.4-.5-1-.8-1.6-1.1-.6-.2-1.3-.4-2.1-.4h-3.7v11.1h3.7c.8 0 1.4-.1 2.1-.4.6-.2 1.2-.6 1.6-1.1.4-.5.8-1 1-1.7s.4-1.5.4-2.4zM497.5 316.4h-.7c-.1 0-.2 0-.2-.1-.1 0-.1-.1-.1-.2l-1.5-3.6h-6.2l-1.5 3.6c0 .1-.1.1-.1.2-.1 0-.1.1-.2.1h-.7l5.1-12.5h.9l5.2 12.5zm-8.3-4.5h5.6l-2.5-6.3c-.1-.2-.2-.5-.3-.7 0 .1-.1.3-.1.4s-.1.2-.1.3l-2.6 6.3zM514.4 310.1c0 1-.1 1.8-.4 2.6s-.7 1.4-1.2 2c-.5.5-1.2 1-1.9 1.2-.7.3-1.5.4-2.4.4h-4.6v-12.5h4.6c.9 0 1.7.1 2.4.4.7.3 1.4.7 1.9 1.2s.9 1.2 1.2 2 .4 1.8.4 2.7zm-.9 0c0-.9-.1-1.7-.4-2.3s-.6-1.3-1-1.7c-.4-.5-1-.8-1.6-1.1-.6-.2-1.3-.4-2.1-.4h-3.7v11.1h3.7c.8 0 1.4-.1 2.1-.4.6-.2 1.2-.6 1.6-1.1.4-.5.8-1 1-1.7s.4-1.5.4-2.4zM517.8 315.7h2.9V304.9l-2.8 2.5c-.1.1-.2.1-.2.1-.1 0-.1-.1-.2-.1l-.3-.4 3.6-3.2h.7v11.9h2.7v.7h-6.5v-.7z"/></g></svg>