<svg xmlns="http://www.w3.org/2000/svg" viewBox="256.9 0 446.2 560.1" enable-background="new 256.9 0 446.2 560.1"><path stroke="#fff" stroke-width="2.041" stroke-linecap="round" stroke-linejoin="round" stroke-miterlimit="10" d="M500.9 37.2V23c0-12.1-9.9-22-22-22s-22 9.9-22 22v14.2M457.6 116.6v29.1M500.9 145.7v-29.1M457.6 218.1v115.6h43.3V218.1" fill="none"/><path stroke="#fff" stroke-width="2.041" stroke-linecap="round" stroke-linejoin="round" stroke-miterlimit="10" fill="none" d="M591 116.6H341.3l14.9-36.2-14.9-36.1H591l54.7 36.1zM366.8 145.7h249.8L602.4 182l14.2 36.1H366.8L312.9 182z"/><g fill="#fff"><path d="M263.3 518.9v40.5h-6.4v-88.7h22.7c9.9 0 17.8 2.1 22.7 5.7 5 3.5 7.8 9.9 7.8 17.8 0 3.5-.7 6.4-2.1 9.2-1.4 2.8-2.8 5-5 7.1-2.1 2.1-5 3.5-7.8 5s-6.4 2.1-10.7 2.8c.7.7 2.1 1.4 2.8 2.8l30.6 38.3H310.1c-.7 0-.7-.7-1.4-1.4l-28.4-36.2c0-.7-.7-.7-.7-1.4 0 0-.7-.7-1.4-.7s-.7 0-1.4-.7h-2.1l-11.4-.1zm0-4.9h15.6c4.2 0 7.8-.7 10.7-1.4 2.8-.7 5.7-2.1 7.8-4.2 2.1-1.4 3.5-3.5 5-6.4 1.4-2.1 1.4-5 1.4-8.5 0-6.4-2.1-11.4-6.4-14.2-4.2-2.8-9.9-4.2-17.8-4.2h-16.3V514zM386.7 469.9v5.7h-46.8v36.2H379v5h-39.1v36.9h46.8v5.7h-53.2v-88.6h53.3l-.1-.9zM449.1 480.6c-.7.7-.7 1.4-1.4 1.4s-1.4-.7-2.1-1.4c-.7-.7-2.1-1.4-3.5-2.8-1.4-.7-3.5-2.1-5.7-2.8-2.1-.7-5-1.4-7.8-1.4s-6.4.7-8.5 1.4c-2.1.7-4.2 2.1-6.4 3.5-1.4 1.4-2.8 3.5-3.5 5.7-.7 2.2-1.4 4.2-1.4 6.4 0 2.8.7 5.7 2.1 7.8 1.4 2.1 2.8 3.5 5 5 2.1 1.4 4.2 2.8 7.1 3.5 2.8.7 5.7 2.1 8.5 2.8 2.8.7 5.7 2.1 8.5 2.8 2.8 1.4 5 2.8 7.1 4.2 2.1 1.4 3.5 3.5 5 6.4 1.4 2.1 2.1 5.7 2.1 9.2s-.7 7.1-2.1 10.7c-1.4 3.5-2.8 6.4-5.7 8.5-2.1 2.1-5.7 4.2-9.2 5.7-3.5 1.4-7.8 2.1-12.1 2.1-5.7 0-10.7-.7-14.9-2.8-4.2-2.1-7.8-5-11.4-8.5l1.4-2.8c.7-.7 1.4-.7 1.4-.7.7 0 .7 0 1.4.7l2.1 2.1c.7.7 2.1 1.4 2.8 2.1.7.7 2.8 1.4 4.2 2.1 1.4.7 3.5 1.4 5.7 2.1 2.1.7 4.2.7 7.1.7 3.5 0 6.4-.7 9.2-1.4 2.8-.7 5-2.8 7.1-4.2 2.1-1.4 3.5-4.2 4.2-6.4.7-2.8 1.4-5 1.4-7.8s-.7-5.7-2.1-7.8c-1.4-2.1-2.8-3.5-5-5-2.1-1.4-4.2-2.8-7.1-3.5-2.8-.7-5.7-2.1-8.5-2.8s-5.7-2.1-8.5-2.8c-2.8-1.4-5-2.1-7.1-4.2-2.1-1.4-3.5-3.5-5-6.4-1.4-2.8-2.1-5.7-2.1-9.2 0-2.8.7-5.7 1.4-8.5 1.4-2.8 2.8-5 5-7.1 2.1-2.1 5-3.5 7.8-5 3.5-1.4 7.1-2.1 10.7-2.1 4.2 0 8.5.7 12.1 2.1 3.5 1.4 7.1 3.5 9.9 6.4l.8 2zM552 514.7c0 7.1-.7 12.8-2.8 18.5-2.1 5.7-5 10.7-8.5 14.2-3.5 4.2-8.5 7.1-13.5 9.2-5 2.1-10.7 3.5-17 3.5-6.4 0-12.1-1.4-17-3.5-5-2.1-9.9-5-13.5-9.2-3.5-4.2-6.4-8.5-8.5-14.2s-2.8-12.1-2.8-18.5c0-7.1.7-12.8 2.8-18.5s5-10.7 8.5-14.2c3.5-4.2 8.5-7.1 13.5-9.2s10.7-3.5 17-3.5c6.4 0 12.1 1.4 17 3.5 5 2.1 9.9 5 13.5 9.2 3.5 4.2 6.4 8.5 8.5 14.2 2.1 5.7 2.8 11.3 2.8 18.5zm-6.4 0c0-6.4-.7-12.1-2.8-17-2.1-4.9-4.2-9.2-7.1-12.8-2.8-3.5-7.1-6.4-11.4-7.8-4.2-2.1-9.2-2.8-14.9-2.8-5 0-9.9.7-14.2 2.8-4.2 2.1-8.5 4.2-11.4 7.8-2.8 3.5-5.7 7.8-7.1 12.8-1.4 5-2.8 10.7-2.8 17 0 6.4.7 12.1 2.8 17 2.1 5 4.2 9.2 7.1 12.8 2.8 3.5 7.1 6.4 11.4 7.8 4.2 2.1 9.2 2.8 14.2 2.8 5.7 0 9.9-.7 14.9-2.8 4.2-2.1 8.5-4.2 11.4-7.8 2.8-3.5 5.7-7.8 7.1-12.8 1.4-5 2.8-10.7 2.8-17zM578.9 518.9v40.5h-6.4v-88.7h22.7c9.9 0 17.8 2.1 22.7 5.7 5 3.5 7.8 9.9 7.8 17.8 0 3.5-.7 6.4-2.1 9.2-1.4 2.8-2.8 5-5 7.1-2.1 2.1-5 3.5-7.8 5s-6.4 2.1-10.7 2.8c.7.7 2.1 1.4 2.8 2.8l30.6 38.3H625.7c-.7 0-.7-.7-1.4-1.4l-28.4-36.3c0-.7-.7-.7-.7-1.4 0 0-.7-.7-1.4-.7s-.7 0-1.4-.7h-13.5zm0-4.9h15.6c4.2 0 7.8-.7 10.7-1.4 2.8-.7 5.7-2.1 7.8-4.2 2.1-1.4 3.5-3.5 5-6.4 1.4-2.1 1.4-5 1.4-8.5 0-6.4-2.1-11.4-6.4-14.2-4.2-2.8-9.9-4.2-17.8-4.2h-16.3V514zM703.1 469.9v5.7h-31.3v83h-6.4V475h-31.3v-5.8l69 .7z"/></g></svg>