<svg xmlns="http://www.w3.org/2000/svg" viewBox="0 0 960 560" enable-background="new 0 0 960 560"><g stroke="#fff" stroke-width="2.006" stroke-linecap="round" stroke-linejoin="round" stroke-miterlimit="10" fill="none"><path d="M475.1 247.1l17.9 18.4c1.2 1.2 3.1 1.2 4.3 0 1.2-1.2 1.2-3.2 0-4.4l-22.2-22.8-22.2 22.8c-1.2 1.2-1.2 3.2 0 4.4 1.2 1.2 3.1 1.2 4.3 0l17.9-18.4zM458 264.7v19.8h12.1v-14h10v14h12v-19.7"/></g><g fill="#fff"><path d="M459.5 316.4h-.9v-6h-7.8v6h-.9v-12.5h.9v5.8h7.8v-5.8h.9v12.5zM474.4 310.1c0 1-.1 1.8-.4 2.6s-.7 1.5-1.2 2-1.2 1-1.9 1.3-1.5.5-2.4.5-1.7-.2-2.4-.5-1.4-.7-1.9-1.3c-.5-.6-.9-1.2-1.2-2s-.4-1.7-.4-2.6c0-1 .1-1.8.4-2.6s.7-1.5 1.2-2c.5-.6 1.2-1 1.9-1.3.7-.3 1.5-.5 2.4-.5s1.7.2 2.4.5 1.4.7 1.9 1.3.9 1.2 1.2 2 .4 1.7.4 2.6zm-1 0c0-.9-.1-1.7-.4-2.4-.2-.7-.6-1.3-1-1.8s-1-.9-1.6-1.1c-.6-.3-1.3-.4-2.1-.4-.7 0-1.4.1-2 .4-.6.3-1.2.6-1.6 1.1-.4.5-.8 1.1-1 1.8-.2.7-.4 1.5-.4 2.4 0 .9.1 1.7.4 2.4.2.7.6 1.3 1 1.8s1 .9 1.6 1.1c.6.3 1.3.4 2 .4s1.4-.1 2.1-.4c.6-.3 1.2-.6 1.6-1.1.4-.5.8-1.1 1-1.8.3-.7.4-1.5.4-2.4zM483.5 313.3c0-.1.1-.2.1-.3 0-.1.1-.2.1-.3l4.9-8.7c0-.1.1-.1.1-.1h.8v12.5h-.8V305.3l-4.9 8.7c-.1.2-.2.2-.4.2h-.1c-.2 0-.3-.1-.4-.2l-5.1-8.8v11.2h-.8v-12.5h.8l.1.1 5.1 8.7c.3.2.4.4.5.6zM500.8 303.9v.8h-6.6v5.1h5.5v.7h-5.5v5.2h6.6v.8h-7.5V304h7.5z"/></g></svg>