<svg xmlns="http://www.w3.org/2000/svg" viewBox="0 0 32.4 48.6" enable-background="new 0 0 32.4 48.6"><g stroke="#fff" stroke-width="2.024" stroke-linecap="round" stroke-linejoin="round" stroke-miterlimit="10" fill="none"><path d="M27.3 17.2h4v5.2c0 8.4-6.8 15.2-15.2 15.2C7.8 37.6 1 30.8 1 22.4v-5.2h4"/><path d="M27.3 22.4c0 6.1-5 11.1-11.1 11.1s-11.1-5-11.1-11.1V12.1C5.1 6 10 1 16.2 1s11.1 5 11.1 11.1v10.3zM21.3 9.1v16.4M5.1 17.2h8.1M5.1 13.2h8.1M6.1 9.1h7.1M6.1 25.3h7.1M5.1 21.3h8.1M16.2 41.5v-3"/><path d="M3 45.5c0-2.2 1.8-4 4-4h18.2c2.2 0 4 1.8 4 4v2H3v-2z"/></g></svg>