<svg xmlns="http://www.w3.org/2000/svg" viewBox="0 0 49.9 49.9" enable-background="new 0 0 49.9 49.9"><g stroke="#fff" stroke-width="2.081" stroke-linecap="round" stroke-linejoin="round" stroke-miterlimit="10" fill="none"><path d="M11.4 11.4c0 1.1.9 2.1 2.1 2.1 1.1 0 2.1-.9 2.1-2.1V3.1c0-1.1-.9-2.1-2.1-2.1-1.2 0-2.1.9-2.1 2.1v8.3zM34.3 11.4c0 1.1.9 2.1 2.1 2.1 1.1 0 2.1-.9 2.1-2.1V3.1c0-1.1-.9-2.1-2.1-2.1-1.2 0-2.1.9-2.1 2.1v8.3zM36.4 21.8h6.2V28h-6.2zM7.3 34.3h6.2v6.2H7.3zM21.8 34.3H28v6.2h-6.2zM36.4 34.3h6.2v6.2h-6.2zM7.3 28.1l6.2-6.3M7.3 21.8l6.2 6.3M21.8 28.1l6.3-6.3M21.8 21.8l6.3 6.3M38.5 7.3h10.4v41.6H1V7.3h10.4M15.6 7.3h18.7"/></g></svg>