<svg xmlns="http://www.w3.org/2000/svg" viewBox="0 0 25.5 39.6" enable-background="new 0 0 25.5 39.6"><g stroke="#fff" stroke-width="1.003" stroke-linecap="round" stroke-linejoin="round" stroke-miterlimit="10" fill="none"><path d="M12.6 4.9l9 9.2c.6.6 1.5.6 2.1 0 .6-.6.6-1.6 0-2.2L12.6.5 1.5 11.9c-.6.6-.6 1.6 0 2.2.6.6 1.5.6 2.1 0l9-9.2zM4.1 13.6v10h6v-7h5v7h6v-9.9"/></g><g fill="#fff"><path d="M4.8 39.5h-.4v-3H.5v3H0v-6.3h.5v2.9h3.9v-2.9h.5v6.3zM12.2 36.4c0 .5-.1.9-.2 1.3s-.3.7-.6 1-.6.5-.9.6-.8.2-1.2.2-.9 0-1.3-.1c-.4-.2-.7-.4-.9-.6-.3-.3-.5-.6-.6-1s-.2-.8-.2-1.3.1-.9.2-1.3.3-.7.6-1c.3-.3.6-.5.9-.6.4-.2.8-.2 1.2-.2s.8.1 1.2.2c.4.2.7.4.9.6s.5.6.6 1 .3.7.3 1.2zm-.4 0c0-.4-.1-.8-.2-1.2-.1-.3-.3-.6-.5-.9-.2-.2-.5-.4-.8-.6-.3-.1-.7-.2-1-.2-.4 0-.7.1-1 .2-.3.1-.6.3-.8.6-.2.2-.4.5-.5.9-.1.3-.2.7-.2 1.2 0 .4.1.8.2 1.2.1.3.3.6.5.9.2.2.5.4.8.6.3.1.7.2 1 .2.4 0 .7-.1 1-.2.3-.1.6-.3.8-.6.2-.2.4-.5.5-.9.1-.4.2-.8.2-1.2zM16.8 38s0-.1.1-.1c0 0 0-.1.1-.1l2.5-4.4s0-.1.1-.1h.4v6.3h-.4V34.1L17 38.3c0 .1-.1.1-.2.1h-.1c-.1 0-.1 0-.2-.1L14 33.9v5.5h-.4v-6.3h.5l.1.1 2.5 4.4c0 .2.1.3.1.4zM25.5 33.3v.4h-3.3v2.5h2.7v.4h-2.7v2.6h3.3v.4h-3.8v-6.3h3.8z"/></g></svg>