<svg xmlns="http://www.w3.org/2000/svg" viewBox="0 0 960 560" enable-background="new 0 0 960 560"><g stroke="#fff" stroke-width="2.175" stroke-linecap="round" stroke-linejoin="round" stroke-miterlimit="10" fill="none"><path d="M458.3 288.3v-45.7M475.7 268.7h-17.4M458.3 246.9h17.4M475.7 246.9c1.2 0 2.2 1 2.2 2.2v21.8c0-1.2-1-2.2-2.2-2.2M477.9 251.3h19.6V273h-19.6v-4.3"/><circle cx="458.3" cy="240.4" r="2.2"/></g><g fill="#fff"><path d="M430.9 304.1h.8c.2 0 .3.1.3.2l3.2 10.3c.1.2.1.5.2.8 0-.1.1-.3.1-.4 0-.1.1-.3.1-.4l3.5-10.3c0-.1.1-.1.1-.2.1 0 .1-.1.2-.1h.2c.1 0 .2 0 .2.1s.1.1.1.2l3.5 10.3c0 .1.1.2.1.4 0 .1.1.3.1.4 0-.1.1-.3.1-.4 0-.1.1-.3.1-.4l3.2-10.3c0-.1.1-.1.1-.2.1 0 .1-.1.2-.1h.7l-3.9 12.5h-.8l-3.7-10.9c0-.1-.1-.3-.1-.5 0 .2-.1.3-.1.5l-3.7 10.9h-.8l-4-12.4zM457.8 304.1v.8h-6.6v5.1h5.5v.7h-5.5v5.2h6.6v.8h-7.5v-12.5h7.5zM461.5 315.8h5.9v.8h-6.8v-12.5h.9v11.7zM477.8 314.5c.1 0 .1 0 .2.1l.4.4c-.3.3-.5.5-.8.7-.3.2-.6.4-1 .6-.4.2-.8.3-1.2.4-.4.1-.9.1-1.4.1-.9 0-1.7-.2-2.4-.5s-1.3-.7-1.9-1.3c-.5-.6-.9-1.2-1.2-2s-.4-1.7-.4-2.6c0-1 .1-1.8.4-2.6.3-.8.7-1.5 1.2-2 .5-.6 1.2-1 1.9-1.3.7-.3 1.6-.5 2.5-.5.9 0 1.6.1 2.3.4.7.3 1.3.6 1.8 1.1l-.3.4c0 .1-.1.1-.2.1s-.2-.1-.3-.2-.4-.3-.7-.4-.6-.3-1.1-.4-.9-.2-1.5-.2c-.8 0-1.4.1-2.1.4-.6.3-1.2.6-1.6 1.1-.5.5-.8 1.1-1.1 1.8-.3.7-.4 1.5-.4 2.3 0 .9.1 1.7.4 2.4.3.7.6 1.3 1.1 1.8.4.5 1 .9 1.6 1.1.6.3 1.3.4 2 .4.4 0 .8 0 1.2-.1s.7-.1 1-.3c.3-.1.6-.3.8-.4.3-.2.5-.4.8-.6-.1-.1-.1-.2 0-.2zM491.7 310.3c0 1-.1 1.8-.4 2.6-.3.8-.7 1.5-1.2 2s-1.2 1-1.9 1.3c-.7.3-1.5.5-2.4.5s-1.7-.2-2.4-.5-1.4-.7-1.9-1.3-.9-1.2-1.2-2c-.3-.8-.4-1.7-.4-2.6 0-1 .1-1.8.4-2.6.3-.8.7-1.5 1.2-2s1.2-1 1.9-1.3c.7-.3 1.5-.5 2.4-.5s1.7.2 2.4.5 1.4.7 1.9 1.3.9 1.2 1.2 2c.2.8.4 1.7.4 2.6zm-1 0c0-.9-.1-1.7-.4-2.4s-.6-1.3-1-1.8-1-.9-1.6-1.1c-.6-.3-1.3-.4-2.1-.4-.7 0-1.4.1-2 .4s-1.2.6-1.6 1.1c-.4.5-.8 1.1-1 1.8-.2.7-.4 1.5-.4 2.4 0 .9.1 1.7.4 2.4.2.7.6 1.3 1 1.8s1 .9 1.6 1.1 1.3.4 2 .4c.8 0 1.4-.1 2.1-.4.6-.3 1.2-.6 1.6-1.1.4-.5.8-1.1 1-1.8s.4-1.5.4-2.4zM500.8 313.5c0-.1.1-.2.1-.3 0-.1.1-.2.1-.3l4.9-8.7c0-.1.1-.1.1-.1h.8v12.5h-.8V305.5l-4.9 8.7c-.1.2-.2.2-.4.2h-.1c-.2 0-.3-.1-.4-.2l-5.1-8.8v11.2h-.8v-12.5h.8l.1.1 5.1 8.7c.4.2.4.4.5.6zM518.1 304.1v.8h-6.6v5.1h5.5v.7h-5.5v5.2h6.6v.8h-7.5v-12.5h7.5z"/></g></svg>