<?xml version="1.0" encoding="utf-8"?>
<!-- Generator: Adobe Illustrator 18.1.0, SVG Export Plug-In . SVG Version: 6.00 Build 0)  -->
<!DOCTYPE svg PUBLIC "-//W3C//DTD SVG 1.1//EN" "http://www.w3.org/Graphics/SVG/1.1/DTD/svg11.dtd">
<svg version="1.1" id="Layer_1" xmlns="http://www.w3.org/2000/svg" xmlns:xlink="http://www.w3.org/1999/xlink" x="0px" y="0px"
	 viewBox="0 0 188.8 33.7" enable-background="new 0 0 188.8 33.7" xml:space="preserve">
<path fill="#CBE085" d="M171.9,33.7h-155C7.6,33.7,0,26.1,0,16.9v0C0,7.6,7.6,0,16.9,0l155,0c9.3,0,16.9,7.6,16.9,16.9v0
	C188.8,26.1,181.2,33.7,171.9,33.7z"/>
<g>
	<path fill="#424752" d="M71.2,17.5c0,0.9-0.2,1.8-0.5,2.6s-0.7,1.4-1.3,2c-0.5,0.6-1.2,1-2,1.3s-1.6,0.5-2.6,0.5h-4.7V11.2H65
		c0.9,0,1.8,0.2,2.6,0.5c0.8,0.3,1.4,0.7,2,1.3c0.5,0.6,1,1.2,1.3,2S71.2,16.6,71.2,17.5z M69.5,17.5c0-0.8-0.1-1.5-0.3-2.1
		s-0.5-1.1-0.9-1.6c-0.4-0.4-0.9-0.7-1.4-1c-0.6-0.2-1.2-0.3-1.9-0.3h-3v9.9h3c0.7,0,1.3-0.1,1.9-0.3c0.6-0.2,1-0.5,1.4-1
		c0.4-0.4,0.7-0.9,0.9-1.6S69.5,18.3,69.5,17.5z"/>
	<path fill="#424752" d="M81.5,11.2v1.4h-6.1v4.2h4.9v1.3h-4.9v4.3h6.1l0,1.4h-7.8V11.2H81.5z"/>
	<path fill="#424752" d="M92.5,11.2v1.4h-4.1v11.2h-1.7V12.6h-4.1v-1.4H92.5z"/>
	<path fill="#424752" d="M103.4,23.9h-1.3c-0.2,0-0.3,0-0.4-0.1c-0.1-0.1-0.2-0.2-0.2-0.3l-1.2-3.1h-5.7l-1.2,3.1
		c0,0.1-0.1,0.2-0.2,0.3s-0.2,0.1-0.4,0.1h-1.3l5.1-12.7h1.7L103.4,23.9z M95.1,19.2h4.7l-2-5.2c-0.1-0.2-0.1-0.3-0.2-0.5
		c-0.1-0.2-0.1-0.4-0.2-0.6c-0.1,0.2-0.1,0.4-0.2,0.7c-0.1,0.2-0.1,0.4-0.2,0.5L95.1,19.2z"/>
	<path fill="#424752" d="M106.8,23.9h-1.7V11.2h1.7V23.9z"/>
	<path fill="#424752" d="M111.8,22.4h5.5v1.4h-7.2V11.2h1.7V22.4z"/>
	<path fill="#424752" d="M125.6,13.2c-0.1,0.1-0.1,0.2-0.2,0.2c-0.1,0-0.1,0.1-0.2,0.1c-0.1,0-0.2,0-0.4-0.2
		c-0.1-0.1-0.3-0.2-0.5-0.3c-0.2-0.1-0.4-0.2-0.7-0.3s-0.6-0.2-1-0.2c-0.4,0-0.7,0.1-1,0.2s-0.5,0.2-0.7,0.4
		c-0.2,0.2-0.3,0.4-0.4,0.6c-0.1,0.2-0.2,0.5-0.2,0.8c0,0.4,0.1,0.6,0.3,0.9c0.2,0.2,0.4,0.4,0.7,0.6s0.6,0.3,1,0.4
		c0.4,0.1,0.7,0.2,1.1,0.4c0.4,0.1,0.8,0.3,1.1,0.4c0.4,0.2,0.7,0.4,1,0.6c0.3,0.2,0.5,0.6,0.7,0.9s0.3,0.8,0.3,1.3
		c0,0.6-0.1,1.1-0.3,1.6s-0.5,0.9-0.8,1.3c-0.4,0.4-0.8,0.6-1.3,0.8c-0.5,0.2-1.1,0.3-1.8,0.3c-0.8,0-1.6-0.1-2.2-0.4
		c-0.7-0.3-1.2-0.7-1.7-1.2l0.5-0.8c0-0.1,0.1-0.1,0.2-0.2c0.1,0,0.1-0.1,0.2-0.1c0.1,0,0.2,0,0.3,0.1c0.1,0.1,0.2,0.1,0.3,0.2
		c0.1,0.1,0.3,0.2,0.4,0.3c0.2,0.1,0.3,0.2,0.5,0.3c0.2,0.1,0.4,0.2,0.7,0.2c0.3,0.1,0.6,0.1,0.9,0.1c0.4,0,0.8-0.1,1.1-0.2
		c0.3-0.1,0.6-0.3,0.8-0.5c0.2-0.2,0.4-0.4,0.5-0.7c0.1-0.3,0.2-0.6,0.2-0.9c0-0.4-0.1-0.7-0.3-0.9c-0.2-0.2-0.4-0.4-0.7-0.6
		s-0.6-0.3-1-0.4c-0.4-0.1-0.7-0.2-1.1-0.4c-0.4-0.1-0.7-0.3-1.1-0.4c-0.4-0.2-0.7-0.4-1-0.6c-0.3-0.3-0.5-0.6-0.7-1
		s-0.3-0.9-0.3-1.4c0-0.4,0.1-0.9,0.3-1.3c0.2-0.4,0.4-0.8,0.8-1.1c0.3-0.3,0.7-0.6,1.2-0.8c0.5-0.2,1-0.3,1.7-0.3
		c0.7,0,1.4,0.1,1.9,0.3s1.1,0.5,1.5,1L125.6,13.2z"/>
</g>
<g>
	
		<line fill="none" stroke="#3E3E42" stroke-width="2.2417" stroke-linecap="round" stroke-linejoin="round" stroke-miterlimit="10" x1="166.1" y1="16.9" x2="156.2" y2="7"/>
	
		<line fill="none" stroke="#3E3E42" stroke-width="2.2417" stroke-linecap="round" stroke-linejoin="round" stroke-miterlimit="10" x1="166.1" y1="17" x2="156.2" y2="26.9"/>
</g>
</svg>
