<?xml version="1.0" encoding="utf-8"?>
<!-- Generator: Adobe Illustrator 18.1.0, SVG Export Plug-In . SVG Version: 6.00 Build 0)  -->
<!DOCTYPE svg PUBLIC "-//W3C//DTD SVG 1.1//EN" "http://www.w3.org/Graphics/SVG/1.1/DTD/svg11.dtd">
<svg version="1.1" id="Layer_1" xmlns="http://www.w3.org/2000/svg" xmlns:xlink="http://www.w3.org/1999/xlink" x="0px" y="0px"
	 viewBox="0 0 100 39.1" enable-background="new 0 0 100 39.1" xml:space="preserve">
<g>
	<path fill="#32324A" d="M16.6,17.6h4.3v21.2h-4.7L4.4,22.9l0,15.9H0V17.6h5.1L16.6,33L16.6,17.6z M56.6,34.5l5.9-11.9h3.8
		l-8.1,16.2h-3.4l-7.9-16.2h4L56.6,34.5z M35.9,27L30,38.8h-3.8l8.1-16.2h3.4l7.9,16.2h-4L35.9,27z M72.6,38.8V22.6h3.7v16.2H72.6z
		 M96.5,38.2c-1.5,0.6-3.4,1-5.5,1c-2.6,0-5.3-0.5-7.7-1.4l1.4-2.2c2.2,0.9,4.1,1.3,6.4,1.3c1.4,0,2.3-0.2,3.1-0.5
		c1-0.4,1.5-1,1.5-1.8c0-1.2-1.1-1.9-3.7-2.4l-3-0.6c-1.9-0.4-3.4-1.1-4.2-2.1c-0.6-0.7-0.9-1.4-0.9-2.2c0-2.9,3.3-4.9,7.9-4.9
		c2.7,0,5.6,0.6,7.5,1.6l-1.7,2.1c-1.9-0.9-3.7-1.3-5.6-1.3c-2.4,0-4,0.8-4,2.1c0,1,0.9,1.6,3.3,2.1l2.8,0.6
		c1.6,0.3,3.2,0.9,4.2,1.7c0.9,0.7,1.5,1.8,1.5,2.9C100,35.7,98.7,37.3,96.5,38.2z"/>
	<path fill="#F47B20" d="M84.7,11.6c-0.8,4.1-9.8,7.5-20.9,8.1l2.8-4.8c7.9-0.7,13.7-2.8,13.9-5.3C80.7,6.5,71.9,4,60.8,4
		c-3.7,0-7.2,0.3-10.2,0.8l0-0.3c2.3-0.5,4.9-0.8,7.6-1L60.9,0l2.4,3.3C76,3.4,85.6,7.1,84.7,11.6z M60.8,11.2
		c-1.9,0-3.5-0.3-4.7-0.7l4.7,8.7l5.4-8.9C65,10.8,63,11.2,60.8,11.2z"/>
</g>
</svg>
