<?xml version="1.0" encoding="utf-8"?>
<!-- Generator: Adobe Illustrator 18.1.0, SVG Export Plug-In . SVG Version: 6.00 Build 0)  -->
<!DOCTYPE svg PUBLIC "-//W3C//DTD SVG 1.1//EN" "http://www.w3.org/Graphics/SVG/1.1/DTD/svg11.dtd">
<svg version="1.1" id="Layer_1" xmlns="http://www.w3.org/2000/svg" xmlns:xlink="http://www.w3.org/1999/xlink" x="0px" y="0px"
	 viewBox="0 0 569.5 156.5" enable-background="new 0 0 569.5 156.5" xml:space="preserve">
<line fill="none" stroke="#FFFFFF" stroke-width="2" stroke-miterlimit="10" x1="347.2" y1="105.8" x2="28.4" y2="105.8"/>
<line fill="none" stroke="#FFFFFF" stroke-width="2" stroke-miterlimit="10" x1="28.3" y1="156.5" x2="28.3" y2="0"/>
<g>
	
		<circle fill="none" stroke="#FFFFFF" stroke-width="2" stroke-linecap="round" stroke-linejoin="round" stroke-miterlimit="10" cx="125.2" cy="46.5" r="5"/>
	<path fill="none" stroke="#FFFFFF" stroke-width="2" stroke-linecap="round" stroke-linejoin="round" stroke-miterlimit="10" d="
		M132.3,61.9l-7.1,13.6l-7.1-13.6c-5.9-2.7-9.9-8.6-9.9-15.4c0-9.4,7.6-17,17-17c9.4,0,17,7.6,17,17
		C142.2,53.3,138.1,59.2,132.3,61.9z"/>
</g>
<g>
	<path fill="#FFFFFF" d="M183.6,114.1v0.8h-6.7v5.4h5.8v0.8h-5.8v5.8H176v-12.7H183.6z"/>
	<path fill="#FFFFFF" d="M187.1,126h6v0.8h-7v-12.7h0.9V126z"/>
	<path fill="#FFFFFF" d="M193.2,121.1h4.2v0.7h-4.2V121.1z"/>
	<path fill="#FFFFFF" d="M207.3,114.4c0,0.1,0,0.2-0.1,0.3s-0.2,0.1-0.4,0.1h-4.6l-0.8,4.2c0.4-0.1,0.8-0.2,1.1-0.2
		c0.4,0,0.7-0.1,1-0.1c0.7,0,1.3,0.1,1.8,0.3c0.5,0.2,0.9,0.5,1.3,0.8s0.6,0.7,0.8,1.2c0.2,0.5,0.3,1,0.3,1.5c0,0.7-0.1,1.3-0.3,1.8
		c-0.2,0.5-0.5,1-0.9,1.4c-0.4,0.4-0.9,0.7-1.4,0.9c-0.5,0.2-1.1,0.3-1.7,0.3c-0.3,0-0.7,0-1-0.1c-0.3-0.1-0.6-0.1-0.9-0.3
		c-0.3-0.1-0.5-0.2-0.8-0.4c-0.2-0.1-0.4-0.3-0.6-0.4l0.3-0.4c0.1-0.1,0.1-0.1,0.3-0.1c0.1,0,0.2,0,0.3,0.1c0.1,0.1,0.3,0.2,0.6,0.3
		c0.2,0.1,0.5,0.2,0.8,0.3c0.3,0.1,0.7,0.1,1.1,0.1c0.5,0,1-0.1,1.4-0.2c0.4-0.2,0.8-0.4,1.1-0.7c0.3-0.3,0.6-0.7,0.7-1.1
		c0.2-0.4,0.3-0.9,0.3-1.5c0-0.5-0.1-0.9-0.2-1.3c-0.1-0.4-0.3-0.7-0.6-1c-0.3-0.3-0.6-0.5-1-0.6s-0.9-0.2-1.5-0.2
		c-0.3,0-0.7,0-1.1,0.1s-0.8,0.1-1.2,0.3l-0.5-0.2l1-5.6h5.7V114.4z"/>
	<path fill="#FFFFFF" d="M214.4,113.9c0.5,0,0.9,0.1,1.4,0.2c0.4,0.1,0.8,0.4,1.2,0.6s0.6,0.6,0.8,1.1s0.3,0.9,0.3,1.5
		c0,0.5-0.1,0.9-0.2,1.3c-0.1,0.4-0.3,0.8-0.6,1.2s-0.5,0.7-0.9,1.1s-0.7,0.7-1,1.1l-4,4.1c0.2,0,0.4-0.1,0.6-0.1c0.2,0,0.4,0,0.6,0
		h5.5c0.1,0,0.2,0,0.2,0.1c0.1,0.1,0.1,0.1,0.1,0.2v0.5h-8.2v-0.3c0-0.1,0-0.1,0-0.2c0-0.1,0.1-0.1,0.1-0.2l4.3-4.4
		c0.4-0.4,0.7-0.7,1-1.1c0.3-0.3,0.6-0.7,0.8-1s0.4-0.7,0.5-1.1s0.2-0.8,0.2-1.2c0-0.5-0.1-0.9-0.2-1.2c-0.2-0.3-0.4-0.6-0.6-0.9
		c-0.3-0.2-0.6-0.4-0.9-0.5c-0.3-0.1-0.7-0.2-1.1-0.2c-0.4,0-0.8,0.1-1.1,0.2s-0.6,0.3-0.9,0.5c-0.3,0.2-0.5,0.5-0.6,0.8
		s-0.3,0.6-0.4,1c0,0.1-0.1,0.2-0.2,0.3c-0.1,0-0.2,0.1-0.3,0l-0.4-0.1c0.1-0.5,0.2-1,0.5-1.5c0.2-0.4,0.5-0.8,0.8-1.1
		c0.3-0.3,0.7-0.5,1.2-0.7S213.9,113.9,214.4,113.9z"/>
	<path fill="#FFFFFF" d="M224.8,126.9c-0.6,0-1.2-0.1-1.7-0.2c-0.5-0.2-0.9-0.4-1.3-0.7s-0.6-0.7-0.9-1.1c-0.2-0.4-0.3-0.9-0.3-1.5
		c0-0.5,0.1-0.9,0.2-1.3c0.1-0.4,0.3-0.7,0.6-1c0.2-0.3,0.5-0.5,0.9-0.7c0.3-0.2,0.7-0.3,1.1-0.4c-0.4-0.1-0.7-0.3-1-0.4
		c-0.3-0.2-0.5-0.4-0.7-0.7c-0.2-0.3-0.3-0.5-0.4-0.9c-0.1-0.3-0.2-0.7-0.2-1c0-0.5,0.1-0.9,0.3-1.3c0.2-0.4,0.4-0.7,0.7-1
		c0.3-0.3,0.7-0.5,1.2-0.7s1-0.3,1.5-0.3c0.6,0,1.1,0.1,1.5,0.3s0.8,0.4,1.2,0.7c0.3,0.3,0.6,0.6,0.7,1c0.2,0.4,0.3,0.8,0.3,1.3
		c0,0.4-0.1,0.7-0.2,1c-0.1,0.3-0.3,0.6-0.5,0.9s-0.4,0.5-0.7,0.7c-0.3,0.2-0.6,0.3-1,0.4c0.4,0.1,0.8,0.2,1.1,0.4
		c0.3,0.2,0.6,0.4,0.9,0.7c0.2,0.3,0.4,0.6,0.6,1c0.1,0.4,0.2,0.8,0.2,1.3c0,0.5-0.1,1-0.3,1.5c-0.2,0.4-0.5,0.8-0.9,1.1
		c-0.4,0.3-0.8,0.5-1.3,0.7C225.9,126.9,225.4,126.9,224.8,126.9z M224.8,126.2c0.5,0,0.9-0.1,1.3-0.2c0.4-0.1,0.7-0.3,1-0.6
		s0.5-0.5,0.7-0.9c0.2-0.3,0.2-0.7,0.2-1.2c0-0.6-0.1-1-0.3-1.4s-0.5-0.7-0.8-0.9c-0.3-0.2-0.7-0.4-1.1-0.5
		c-0.4-0.1-0.8-0.1-1.1-0.1c-0.4,0-0.7,0-1.1,0.1c-0.4,0.1-0.7,0.2-1.1,0.5c-0.3,0.2-0.6,0.5-0.8,0.9s-0.3,0.8-0.3,1.4
		c0,0.4,0.1,0.8,0.2,1.2c0.2,0.3,0.4,0.6,0.7,0.9s0.6,0.4,1,0.6C223.8,126.2,224.3,126.2,224.8,126.2z M224.8,119.8
		c0.5,0,0.9-0.1,1.3-0.2c0.4-0.1,0.7-0.3,0.9-0.6s0.4-0.5,0.5-0.9c0.1-0.3,0.2-0.6,0.2-1c0-0.4-0.1-0.7-0.2-1
		c-0.1-0.3-0.3-0.6-0.6-0.8s-0.5-0.4-0.9-0.5c-0.4-0.1-0.8-0.2-1.2-0.2s-0.9,0.1-1.2,0.2c-0.4,0.1-0.7,0.3-0.9,0.5
		c-0.2,0.2-0.4,0.5-0.6,0.8c-0.1,0.3-0.2,0.7-0.2,1c0,0.3,0.1,0.7,0.2,1c0.1,0.3,0.3,0.6,0.5,0.9c0.2,0.2,0.5,0.4,0.9,0.6
		C223.8,119.8,224.3,119.8,224.8,119.8z"/>
</g>
<g>
	<path fill="#FFFFFF" d="M0.9,89.6H0V76.8h0.9V89.6z"/>
	<path fill="#FFFFFF" d="M4.1,83.9h4.2v0.7H4.1V83.9z"/>
	<path fill="#FFFFFF" d="M17,85.2h2.3v0.5c0,0.1,0,0.1-0.1,0.2s-0.1,0.1-0.2,0.1H17v3.7h-0.8v-3.7h-6c-0.1,0-0.2,0-0.2-0.1
		s-0.1-0.1-0.1-0.2l-0.1-0.4l6.4-8.5H17V85.2z M16.2,78.6c0-0.1,0-0.2,0-0.3c0-0.1,0-0.2,0-0.4l-5.5,7.4h5.5V78.6z"/>
</g>
<g>
	<path fill="#FFFFFF" d="M160.1,39.8v6h-1V32.5h3.4c1.5,0,2.7,0.3,3.5,0.9c0.8,0.6,1.1,1.5,1.1,2.6c0,0.5-0.1,1-0.3,1.4
		s-0.4,0.8-0.8,1.1c-0.3,0.3-0.7,0.6-1.2,0.8c-0.5,0.2-1,0.3-1.6,0.4c0.2,0.1,0.3,0.2,0.4,0.4l4.6,5.8h-0.8c-0.1,0-0.2,0-0.3-0.1
		c-0.1,0-0.1-0.1-0.2-0.2l-4.3-5.4c-0.1-0.1-0.1-0.1-0.2-0.2c-0.1-0.1-0.1-0.1-0.2-0.1c-0.1,0-0.1,0-0.2-0.1c-0.1,0-0.2,0-0.3,0
		H160.1z M160.1,39.1h2.3c0.6,0,1.1-0.1,1.6-0.2c0.5-0.1,0.9-0.3,1.2-0.6c0.3-0.3,0.6-0.6,0.7-1c0.2-0.4,0.3-0.8,0.3-1.3
		c0-1-0.3-1.7-0.9-2.1c-0.6-0.5-1.5-0.7-2.7-0.7h-2.4V39.1z"/>
	<path fill="#FFFFFF" d="M182.3,39.2c0,1-0.2,2-0.5,2.8s-0.7,1.6-1.3,2.2s-1.2,1.1-2,1.4c-0.8,0.3-1.6,0.5-2.6,0.5
		c-0.9,0-1.8-0.2-2.6-0.5c-0.8-0.3-1.5-0.8-2-1.4s-1-1.3-1.3-2.2s-0.5-1.8-0.5-2.8c0-1,0.2-2,0.5-2.8s0.7-1.6,1.3-2.2
		c0.6-0.6,1.2-1.1,2-1.4s1.6-0.5,2.6-0.5c0.9,0,1.8,0.2,2.6,0.5c0.8,0.3,1.5,0.8,2,1.4s1,1.3,1.3,2.2S182.3,38.2,182.3,39.2z
		 M181.3,39.2c0-0.9-0.1-1.8-0.4-2.5c-0.3-0.7-0.6-1.4-1.1-1.9c-0.5-0.5-1-0.9-1.7-1.2s-1.4-0.4-2.2-0.4c-0.8,0-1.5,0.1-2.2,0.4
		s-1.2,0.7-1.7,1.2s-0.8,1.1-1.1,1.9c-0.3,0.7-0.4,1.6-0.4,2.5c0,0.9,0.1,1.8,0.4,2.5c0.3,0.7,0.6,1.4,1.1,1.9s1,0.9,1.7,1.2
		s1.4,0.4,2.2,0.4c0.8,0,1.5-0.1,2.2-0.4s1.2-0.7,1.7-1.2c0.5-0.5,0.8-1.1,1.1-1.9S181.3,40.1,181.3,39.2z"/>
	<path fill="#FFFFFF" d="M191.9,34.1c-0.1,0.1-0.1,0.2-0.2,0.2c-0.1,0-0.2-0.1-0.3-0.2c-0.1-0.1-0.3-0.2-0.5-0.4
		c-0.2-0.1-0.5-0.3-0.8-0.4c-0.3-0.1-0.7-0.2-1.2-0.2c-0.5,0-0.9,0.1-1.3,0.2c-0.4,0.1-0.7,0.3-0.9,0.6c-0.2,0.2-0.4,0.5-0.6,0.8
		c-0.1,0.3-0.2,0.6-0.2,1c0,0.5,0.1,0.8,0.3,1.1c0.2,0.3,0.4,0.5,0.8,0.8s0.7,0.4,1.1,0.5c0.4,0.1,0.8,0.3,1.2,0.4
		c0.4,0.1,0.8,0.3,1.2,0.5c0.4,0.2,0.8,0.4,1.1,0.6s0.6,0.6,0.8,0.9c0.2,0.4,0.3,0.8,0.3,1.4c0,0.6-0.1,1.1-0.3,1.6
		c-0.2,0.5-0.5,0.9-0.8,1.3s-0.8,0.7-1.3,0.9s-1.1,0.3-1.8,0.3c-0.9,0-1.6-0.2-2.3-0.5c-0.6-0.3-1.2-0.7-1.7-1.3l0.3-0.4
		c0.1-0.1,0.2-0.1,0.3-0.1c0.1,0,0.1,0,0.2,0.1s0.2,0.2,0.3,0.3s0.3,0.2,0.5,0.4c0.2,0.1,0.4,0.2,0.6,0.4c0.2,0.1,0.5,0.2,0.8,0.3
		c0.3,0.1,0.6,0.1,1,0.1c0.5,0,1-0.1,1.4-0.2s0.8-0.4,1.1-0.7c0.3-0.3,0.5-0.6,0.7-1c0.2-0.4,0.2-0.8,0.2-1.2c0-0.5-0.1-0.9-0.3-1.2
		c-0.2-0.3-0.4-0.6-0.8-0.8c-0.3-0.2-0.7-0.4-1.1-0.5c-0.4-0.1-0.8-0.3-1.2-0.4s-0.8-0.3-1.2-0.4c-0.4-0.2-0.8-0.4-1.1-0.6
		c-0.3-0.3-0.6-0.6-0.8-1c-0.2-0.4-0.3-0.9-0.3-1.4c0-0.4,0.1-0.9,0.3-1.3c0.2-0.4,0.4-0.8,0.7-1.1c0.3-0.3,0.7-0.6,1.2-0.8
		c0.5-0.2,1-0.3,1.6-0.3c0.7,0,1.3,0.1,1.9,0.3c0.6,0.2,1.1,0.6,1.5,1L191.9,34.1z"/>
	<path fill="#FFFFFF" d="M203.5,32.5v0.8h-7v5.4h5.9v0.8h-5.9v5.6h7.1l0,0.8h-8V32.5H203.5z"/>
	<path fill="#FFFFFF" d="M207.2,32.6c0,0,0.1,0.1,0.2,0.1l8.7,11.6c0-0.2,0-0.4,0-0.5V32.5h0.8v13.4h-0.5c-0.1,0-0.1,0-0.2,0
		c-0.1,0-0.1-0.1-0.2-0.1l-8.7-11.6c0,0.2,0,0.4,0,0.5v11.3h-0.9V32.5h0.5C207,32.5,207.1,32.5,207.2,32.6z"/>
	<path fill="#FFFFFF" d="M235.5,43.6c0.1,0,0.1,0,0.2,0.1l0.4,0.4c-0.3,0.3-0.6,0.6-0.9,0.8c-0.3,0.2-0.7,0.4-1.1,0.6
		c-0.4,0.2-0.8,0.3-1.3,0.4c-0.5,0.1-1,0.1-1.5,0.1c-0.9,0-1.8-0.2-2.5-0.5c-0.8-0.3-1.4-0.8-2-1.4c-0.6-0.6-1-1.3-1.3-2.2
		c-0.3-0.8-0.5-1.8-0.5-2.8c0-1,0.2-1.9,0.5-2.8c0.3-0.8,0.8-1.6,1.3-2.2c0.6-0.6,1.2-1.1,2-1.4c0.8-0.3,1.7-0.5,2.6-0.5
		c0.9,0,1.7,0.1,2.4,0.4c0.7,0.3,1.3,0.7,1.9,1.2l-0.3,0.4c-0.1,0.1-0.1,0.1-0.2,0.1c-0.1,0-0.2-0.1-0.4-0.2
		c-0.2-0.1-0.4-0.3-0.7-0.5c-0.3-0.2-0.7-0.3-1.1-0.5c-0.5-0.1-1-0.2-1.6-0.2c-0.8,0-1.5,0.1-2.2,0.4s-1.2,0.7-1.7,1.2
		c-0.5,0.5-0.9,1.1-1.1,1.9c-0.3,0.7-0.4,1.6-0.4,2.5c0,0.9,0.1,1.8,0.4,2.5c0.3,0.7,0.7,1.4,1.1,1.9c0.5,0.5,1,0.9,1.7,1.2
		s1.4,0.4,2.1,0.4c0.5,0,0.9,0,1.3-0.1c0.4-0.1,0.7-0.2,1-0.3s0.6-0.3,0.9-0.5c0.3-0.2,0.5-0.4,0.8-0.6
		C235.4,43.7,235.4,43.7,235.5,43.6C235.4,43.7,235.5,43.6,235.5,43.6z"/>
	<path fill="#FFFFFF" d="M246.7,32.5v0.8h-7v5.4h5.9v0.8h-5.9v5.6h7.1l0,0.8h-8V32.5H246.7z"/>
	<path fill="#FFFFFF" d="M250.3,32.6c0,0,0.1,0.1,0.2,0.1l8.7,11.6c0-0.2,0-0.4,0-0.5V32.5h0.8v13.4h-0.5c-0.1,0-0.1,0-0.2,0
		c-0.1,0-0.1-0.1-0.2-0.1l-8.7-11.6c0,0.2,0,0.4,0,0.5v11.3h-0.9V32.5h0.5C250.2,32.5,250.2,32.5,250.3,32.6z"/>
	<path fill="#FFFFFF" d="M272.6,32.5v0.8h-4.7v12.5h-1V33.3h-4.7v-0.8H272.6z"/>
	<path fill="#FFFFFF" d="M275.8,39.8v6h-1V32.5h3.4c1.5,0,2.7,0.3,3.5,0.9c0.8,0.6,1.1,1.5,1.1,2.6c0,0.5-0.1,1-0.3,1.4
		s-0.4,0.8-0.8,1.1c-0.3,0.3-0.7,0.6-1.2,0.8c-0.5,0.2-1,0.3-1.6,0.4c0.2,0.1,0.3,0.2,0.4,0.4l4.6,5.8h-0.8c-0.1,0-0.2,0-0.3-0.1
		c-0.1,0-0.1-0.1-0.2-0.2l-4.3-5.4c-0.1-0.1-0.1-0.1-0.2-0.2c-0.1-0.1-0.1-0.1-0.2-0.1c-0.1,0-0.1,0-0.2-0.1c-0.1,0-0.2,0-0.3,0
		H275.8z M275.8,39.1h2.3c0.6,0,1.1-0.1,1.6-0.2c0.5-0.1,0.9-0.3,1.2-0.6c0.3-0.3,0.6-0.6,0.7-1c0.2-0.4,0.3-0.8,0.3-1.3
		c0-1-0.3-1.7-0.9-2.1c-0.6-0.5-1.5-0.7-2.7-0.7h-2.4V39.1z"/>
	<path fill="#FFFFFF" d="M294.3,32.5v0.8h-7v5.4h5.9v0.8h-5.9v5.6h7.1l0,0.8h-8V32.5H294.3z"/>
	<path fill="#FFFFFF" d="M312.7,45.9h-1v-6.4h-8.4v6.4h-1V32.5h1v6.2h8.4v-6.2h1V45.9z"/>
	<path fill="#FFFFFF" d="M328.5,39.2c0,1-0.2,2-0.5,2.8s-0.7,1.6-1.3,2.2s-1.2,1.1-2,1.4c-0.8,0.3-1.6,0.5-2.6,0.5
		c-0.9,0-1.8-0.2-2.6-0.5c-0.8-0.3-1.5-0.8-2-1.4s-1-1.3-1.3-2.2s-0.5-1.8-0.5-2.8c0-1,0.2-2,0.5-2.8s0.7-1.6,1.3-2.2
		c0.6-0.6,1.2-1.1,2-1.4s1.6-0.5,2.6-0.5c0.9,0,1.8,0.2,2.6,0.5c0.8,0.3,1.5,0.8,2,1.4s1,1.3,1.3,2.2S328.5,38.2,328.5,39.2z
		 M327.5,39.2c0-0.9-0.1-1.8-0.4-2.5c-0.3-0.7-0.6-1.4-1.1-1.9s-1-0.9-1.7-1.2c-0.7-0.3-1.4-0.4-2.2-0.4c-0.8,0-1.5,0.1-2.2,0.4
		c-0.7,0.3-1.2,0.7-1.7,1.2s-0.8,1.1-1.1,1.9c-0.3,0.7-0.4,1.6-0.4,2.5c0,0.9,0.1,1.8,0.4,2.5c0.3,0.7,0.6,1.4,1.1,1.9
		s1,0.9,1.7,1.2c0.7,0.3,1.4,0.4,2.2,0.4c0.8,0,1.5-0.1,2.2-0.4c0.7-0.3,1.2-0.7,1.7-1.2s0.8-1.1,1.1-1.9
		C327.4,41,327.5,40.1,327.5,39.2z"/>
	<path fill="#FFFFFF" d="M339.5,32.5v0.8h-4.7v12.5h-1V33.3h-4.7v-0.8H339.5z"/>
	<path fill="#FFFFFF" d="M349.8,32.5v0.8h-7v5.4h5.9v0.8h-5.9v5.6h7.1l0,0.8h-8V32.5H349.8z"/>
	<path fill="#FFFFFF" d="M353.7,45.1h6.3v0.8h-7.3V32.5h1V45.1z"/>
	<path fill="#FFFFFF" d="M164.2,63.1c0.2-0.3,0.4-0.5,0.5-0.8c0.2-0.2,0.3-0.5,0.4-0.7c-0.4,0.4-0.8,0.7-1.3,1s-1.1,0.3-1.7,0.3
		c-0.5,0-1.1-0.1-1.5-0.3c-0.5-0.2-0.9-0.4-1.2-0.8c-0.3-0.3-0.6-0.7-0.8-1.2s-0.3-1-0.3-1.6c0-0.6,0.1-1.1,0.3-1.6s0.5-0.9,0.9-1.3
		c0.4-0.4,0.8-0.6,1.3-0.8c0.5-0.2,1.1-0.3,1.7-0.3c0.6,0,1.1,0.1,1.6,0.3s0.9,0.5,1.3,0.9c0.4,0.4,0.6,0.8,0.8,1.3
		c0.2,0.5,0.3,1.1,0.3,1.7c0,0.3,0,0.7-0.1,1c-0.1,0.3-0.2,0.6-0.3,0.9c-0.1,0.3-0.3,0.6-0.5,1c-0.2,0.3-0.4,0.7-0.7,1.1l-3.5,5.1
		c-0.1,0.1-0.2,0.2-0.5,0.2h-0.8L164.2,63.1z M165.8,59.1c0-0.5-0.1-0.9-0.2-1.3c-0.2-0.4-0.4-0.7-0.7-1c-0.3-0.3-0.6-0.5-1-0.7
		c-0.4-0.2-0.8-0.2-1.3-0.2c-0.5,0-1,0.1-1.4,0.2c-0.4,0.2-0.8,0.4-1.1,0.7c-0.3,0.3-0.5,0.6-0.7,1c-0.2,0.4-0.2,0.8-0.2,1.3
		c0,0.5,0.1,0.9,0.2,1.3c0.1,0.4,0.4,0.7,0.6,1s0.6,0.5,1,0.6c0.4,0.1,0.8,0.2,1.3,0.2c0.5,0,1-0.1,1.4-0.3s0.8-0.4,1.1-0.7
		c0.3-0.3,0.5-0.6,0.7-1C165.7,59.8,165.8,59.5,165.8,59.1z"/>
	<path fill="#FFFFFF" d="M173.5,68.7c-0.6,0-1.2-0.1-1.8-0.3s-1-0.4-1.4-0.7c-0.4-0.3-0.7-0.7-0.9-1.2s-0.3-1-0.3-1.5
		c0-0.5,0.1-0.9,0.2-1.3c0.1-0.4,0.3-0.7,0.6-1c0.3-0.3,0.6-0.5,0.9-0.7s0.7-0.3,1.2-0.4c-0.4-0.1-0.7-0.3-1-0.5s-0.6-0.4-0.8-0.7
		c-0.2-0.3-0.4-0.6-0.5-0.9c-0.1-0.3-0.2-0.7-0.2-1.1c0-0.5,0.1-0.9,0.3-1.3c0.2-0.4,0.4-0.8,0.8-1.1s0.7-0.6,1.2-0.7
		c0.5-0.2,1-0.3,1.6-0.3c0.6,0,1.1,0.1,1.6,0.3s0.9,0.4,1.2,0.7c0.3,0.3,0.6,0.7,0.8,1.1c0.2,0.4,0.3,0.9,0.3,1.3
		c0,0.4-0.1,0.7-0.2,1.1c-0.1,0.3-0.3,0.6-0.5,0.9c-0.2,0.3-0.5,0.5-0.8,0.7s-0.6,0.3-1,0.5c0.4,0.1,0.8,0.2,1.2,0.4
		c0.4,0.2,0.7,0.4,0.9,0.7c0.3,0.3,0.5,0.6,0.6,1c0.1,0.4,0.2,0.8,0.2,1.3c0,0.6-0.1,1.1-0.3,1.5s-0.5,0.8-0.9,1.2
		c-0.4,0.3-0.8,0.6-1.4,0.7S174.2,68.7,173.5,68.7z M173.5,68c0.5,0,1-0.1,1.4-0.2c0.4-0.1,0.8-0.3,1.1-0.6c0.3-0.3,0.5-0.6,0.7-0.9
		c0.2-0.4,0.2-0.8,0.2-1.2c0-0.6-0.1-1.1-0.3-1.5c-0.2-0.4-0.5-0.7-0.8-0.9c-0.3-0.2-0.7-0.4-1.1-0.5c-0.4-0.1-0.8-0.1-1.2-0.1
		s-0.8,0-1.2,0.1c-0.4,0.1-0.8,0.3-1.1,0.5c-0.3,0.2-0.6,0.5-0.8,0.9c-0.2,0.4-0.3,0.9-0.3,1.5c0,0.4,0.1,0.9,0.2,1.2
		c0.2,0.4,0.4,0.7,0.7,0.9s0.7,0.5,1.1,0.6C172.6,67.9,173,68,173.5,68z M173.5,61.3c0.5,0,1-0.1,1.3-0.2c0.4-0.2,0.7-0.4,0.9-0.6
		c0.2-0.3,0.4-0.6,0.5-0.9c0.1-0.3,0.2-0.7,0.2-1c0-0.4-0.1-0.7-0.2-1.1c-0.1-0.3-0.3-0.6-0.6-0.9c-0.3-0.2-0.6-0.4-0.9-0.6
		c-0.4-0.1-0.8-0.2-1.3-0.2c-0.5,0-0.9,0.1-1.3,0.2s-0.7,0.3-0.9,0.6c-0.3,0.2-0.4,0.5-0.6,0.9c-0.1,0.3-0.2,0.7-0.2,1.1
		c0,0.4,0.1,0.7,0.2,1c0.1,0.3,0.3,0.6,0.5,0.9c0.2,0.3,0.6,0.5,0.9,0.6C172.6,61.2,173,61.3,173.5,61.3z"/>
	<path fill="#FFFFFF" d="M186.9,64h2.4v0.5c0,0.1,0,0.1-0.1,0.2c0,0-0.1,0.1-0.2,0.1h-2.2v3.8h-0.8v-3.8h-6.3c-0.1,0-0.2,0-0.2-0.1
		c-0.1,0-0.1-0.1-0.1-0.2l-0.1-0.4l6.7-8.9h0.8V64z M186.1,57c0-0.1,0-0.2,0-0.3c0-0.1,0-0.3,0-0.4l-5.8,7.7h5.7V57z"/>
	<path fill="#FFFFFF" d="M200.3,61.9c0,1.2-0.1,2.2-0.4,3c-0.3,0.9-0.6,1.6-1,2.1c-0.4,0.6-0.9,1-1.5,1.3c-0.6,0.3-1.2,0.4-1.9,0.4
		c-0.7,0-1.3-0.1-1.9-0.4c-0.6-0.3-1.1-0.7-1.5-1.3c-0.4-0.6-0.8-1.3-1-2.1c-0.2-0.9-0.4-1.9-0.4-3c0-1.2,0.1-2.2,0.4-3
		c0.2-0.9,0.6-1.6,1-2.1c0.4-0.6,0.9-1,1.5-1.3s1.2-0.4,1.9-0.4c0.7,0,1.3,0.1,1.9,0.4c0.6,0.3,1.1,0.7,1.5,1.3
		c0.4,0.6,0.8,1.3,1,2.1C200.1,59.7,200.3,60.7,200.3,61.9z M199.3,61.9c0-1.1-0.1-2-0.3-2.8s-0.5-1.4-0.8-1.9
		c-0.3-0.5-0.8-0.8-1.2-1.1c-0.5-0.2-1-0.3-1.5-0.3s-1,0.1-1.5,0.3c-0.5,0.2-0.9,0.6-1.2,1.1c-0.4,0.5-0.6,1.1-0.8,1.9
		s-0.3,1.7-0.3,2.8c0,1.1,0.1,2,0.3,2.8c0.2,0.8,0.5,1.4,0.8,1.9s0.8,0.8,1.2,1.1s1,0.3,1.5,0.3s1-0.1,1.5-0.3s0.9-0.6,1.2-1.1
		s0.6-1.1,0.8-1.9C199.2,63.9,199.3,63,199.3,61.9z"/>
	<path fill="#FFFFFF" d="M209,68.6h-1V55.2h1V68.6z"/>
	<path fill="#FFFFFF" d="M213.7,55.2c0,0,0.1,0.1,0.2,0.1l8.7,11.6c0-0.2,0-0.4,0-0.5V55.2h0.8v13.4h-0.5c-0.1,0-0.1,0-0.2,0
		c-0.1,0-0.1-0.1-0.2-0.1l-8.7-11.6c0,0.2,0,0.4,0,0.5v11.3H213V55.2h0.5C213.5,55.2,213.6,55.2,213.7,55.2z"/>
	<path fill="#FFFFFF" d="M235.9,55.2V56h-4.7v12.5h-1V56h-4.7v-0.8H235.9z"/>
	<path fill="#FFFFFF" d="M246.2,55.2V56h-7v5.4h5.9v0.8h-5.9v5.6h7.1l0,0.8h-8V55.2H246.2z"/>
	<path fill="#FFFFFF" d="M250.1,62.5v6h-1V55.2h3.4c1.5,0,2.7,0.3,3.5,0.9c0.8,0.6,1.1,1.5,1.1,2.6c0,0.5-0.1,1-0.3,1.4
		s-0.4,0.8-0.8,1.1c-0.3,0.3-0.7,0.6-1.2,0.8c-0.5,0.2-1,0.3-1.6,0.4c0.2,0.1,0.3,0.2,0.4,0.4l4.6,5.8h-0.8c-0.1,0-0.2,0-0.3-0.1
		c-0.1,0-0.1-0.1-0.2-0.2l-4.3-5.4c-0.1-0.1-0.1-0.1-0.2-0.2c-0.1-0.1-0.1-0.1-0.2-0.1c-0.1,0-0.1,0-0.2-0.1c-0.1,0-0.2,0-0.3,0
		H250.1z M250.1,61.8h2.3c0.6,0,1.1-0.1,1.6-0.2c0.5-0.1,0.9-0.3,1.2-0.6c0.3-0.3,0.6-0.6,0.7-1c0.2-0.4,0.3-0.8,0.3-1.3
		c0-1-0.3-1.7-0.9-2.1c-0.6-0.5-1.5-0.7-2.7-0.7h-2.4V61.8z"/>
	<path fill="#FFFFFF" d="M261.3,55.2c0,0,0.1,0.1,0.2,0.1l8.7,11.6c0-0.2,0-0.4,0-0.5V55.2h0.8v13.4h-0.5c-0.1,0-0.1,0-0.2,0
		c-0.1,0-0.1-0.1-0.2-0.1l-8.7-11.6c0,0.2,0,0.4,0,0.5v11.3h-0.9V55.2h0.5C261.2,55.2,261.3,55.2,261.3,55.2z"/>
	<path fill="#FFFFFF" d="M285.1,68.6h-0.7c-0.1,0-0.2,0-0.2-0.1c-0.1,0-0.1-0.1-0.1-0.2l-1.6-3.9h-6.6l-1.6,3.9
		c0,0.1-0.1,0.1-0.1,0.2c-0.1,0.1-0.1,0.1-0.2,0.1h-0.7l5.5-13.4h1L285.1,68.6z M276.1,63.7h6l-2.7-6.8c-0.1-0.2-0.2-0.5-0.3-0.8
		c0,0.2-0.1,0.3-0.1,0.4c0,0.1-0.1,0.3-0.1,0.4L276.1,63.7z"/>
	<path fill="#FFFFFF" d="M294.6,55.2V56h-4.7v12.5h-1V56h-4.7v-0.8H294.6z"/>
	<path fill="#FFFFFF" d="M297.9,68.6h-1V55.2h1V68.6z"/>
	<path fill="#FFFFFF" d="M313.7,61.9c0,1-0.2,2-0.5,2.8c-0.3,0.8-0.7,1.6-1.3,2.2s-1.2,1.1-2,1.4c-0.8,0.3-1.6,0.5-2.6,0.5
		c-0.9,0-1.8-0.2-2.6-0.5c-0.8-0.3-1.5-0.8-2-1.4s-1-1.3-1.3-2.2c-0.3-0.8-0.5-1.8-0.5-2.8c0-1,0.2-2,0.5-2.8s0.7-1.6,1.3-2.2
		c0.6-0.6,1.2-1.1,2-1.4s1.6-0.5,2.6-0.5c0.9,0,1.8,0.2,2.6,0.5c0.8,0.3,1.5,0.8,2,1.4s1,1.3,1.3,2.2S313.7,60.9,313.7,61.9z
		 M312.7,61.9c0-0.9-0.1-1.8-0.4-2.5c-0.3-0.7-0.6-1.4-1.1-1.9s-1-0.9-1.7-1.2c-0.7-0.3-1.4-0.4-2.2-0.4c-0.8,0-1.5,0.1-2.2,0.4
		c-0.7,0.3-1.2,0.7-1.7,1.2s-0.8,1.1-1.1,1.9c-0.3,0.7-0.4,1.6-0.4,2.5c0,0.9,0.1,1.8,0.4,2.5c0.3,0.7,0.6,1.4,1.1,1.9
		s1,0.9,1.7,1.2c0.7,0.3,1.4,0.4,2.2,0.4c0.8,0,1.5-0.1,2.2-0.4c0.7-0.3,1.2-0.7,1.7-1.2s0.8-1.1,1.1-1.9
		C312.6,63.7,312.7,62.8,312.7,61.9z"/>
	<path fill="#FFFFFF" d="M317.5,55.2c0,0,0.1,0.1,0.2,0.1l8.7,11.6c0-0.2,0-0.4,0-0.5V55.2h0.8v13.4h-0.5c-0.1,0-0.2,0-0.2,0
		c-0.1,0-0.1-0.1-0.2-0.1l-8.7-11.6c0,0.2,0,0.4,0,0.5v11.3h-0.9V55.2h0.5C317.3,55.2,317.4,55.2,317.5,55.2z"/>
	<path fill="#FFFFFF" d="M341.2,68.6h-0.7c-0.1,0-0.2,0-0.2-0.1s-0.1-0.1-0.1-0.2l-1.6-3.9H332l-1.6,3.9c0,0.1-0.1,0.1-0.1,0.2
		c-0.1,0.1-0.1,0.1-0.2,0.1h-0.7l5.5-13.4h1L341.2,68.6z M332.3,63.7h6l-2.7-6.8c-0.1-0.2-0.2-0.5-0.3-0.8c0,0.2-0.1,0.3-0.1,0.4
		c0,0.1-0.1,0.3-0.1,0.4L332.3,63.7z"/>
	<path fill="#FFFFFF" d="M344.4,67.7h6.3v0.8h-7.3V55.2h1V67.7z"/>
	<path fill="#FFFFFF" d="M368.8,61.9c0,1-0.2,2-0.5,2.8c-0.3,0.8-0.7,1.5-1.3,2.1s-1.2,1-2,1.3c-0.8,0.3-1.6,0.5-2.6,0.5h-4.9V55.2
		h4.9c0.9,0,1.8,0.2,2.6,0.5c0.8,0.3,1.5,0.8,2,1.3s1,1.3,1.3,2.1C368.7,59.9,368.8,60.9,368.8,61.9z M367.8,61.9
		c0-0.9-0.1-1.8-0.4-2.5c-0.3-0.7-0.6-1.3-1.1-1.9s-1-0.9-1.7-1.2c-0.7-0.3-1.4-0.4-2.2-0.4h-3.9v11.8h3.9c0.8,0,1.5-0.1,2.2-0.4
		c0.7-0.3,1.2-0.6,1.7-1.2s0.8-1.1,1.1-1.9C367.7,63.7,367.8,62.8,367.8,61.9z"/>
	<path fill="#FFFFFF" d="M372.9,62.5v6h-1V55.2h3.4c1.5,0,2.7,0.3,3.5,0.9c0.8,0.6,1.1,1.5,1.1,2.6c0,0.5-0.1,1-0.3,1.4
		s-0.4,0.8-0.8,1.1c-0.3,0.3-0.7,0.6-1.2,0.8s-1,0.3-1.6,0.4c0.2,0.1,0.3,0.2,0.4,0.4l4.6,5.8h-0.8c-0.1,0-0.2,0-0.3-0.1
		s-0.1-0.1-0.2-0.2l-4.3-5.4c-0.1-0.1-0.1-0.1-0.2-0.2c-0.1-0.1-0.1-0.1-0.2-0.1c-0.1,0-0.1,0-0.2-0.1c-0.1,0-0.2,0-0.3,0H372.9z
		 M372.9,61.8h2.3c0.6,0,1.1-0.1,1.6-0.2c0.5-0.1,0.9-0.3,1.2-0.6c0.3-0.3,0.6-0.6,0.7-1s0.3-0.8,0.3-1.3c0-1-0.3-1.7-0.9-2.1
		s-1.5-0.7-2.7-0.7h-2.4V61.8z"/>
	<path fill="#FFFFFF" d="M382.7,67.8c0-0.2,0.1-0.4,0.2-0.6c0.2-0.2,0.3-0.2,0.6-0.2c0.3,0,0.5,0.1,0.6,0.3c0.1,0.2,0.2,0.4,0.2,0.7
		c0,0.3,0,0.5-0.1,0.8s-0.2,0.5-0.3,0.8c-0.1,0.3-0.3,0.5-0.5,0.7c-0.2,0.2-0.4,0.5-0.6,0.7l-0.1-0.1c0,0-0.1-0.1-0.1-0.1
		c0,0,0-0.1,0-0.1c0,0,0-0.1,0.1-0.2c0.1-0.1,0.1-0.2,0.2-0.3c0.1-0.1,0.2-0.3,0.3-0.4s0.2-0.4,0.3-0.6c0.1-0.2,0.1-0.4,0.2-0.7
		c0,0-0.1,0-0.1,0c0,0-0.1,0-0.2,0c-0.2,0-0.4-0.1-0.6-0.2C382.8,68.2,382.7,68,382.7,67.8z"/>
	<path fill="#FFFFFF" d="M404.5,61.9c0,1-0.2,2-0.5,2.8c-0.3,0.8-0.7,1.6-1.3,2.2c-0.6,0.6-1.2,1.1-2,1.4c-0.8,0.3-1.6,0.5-2.6,0.5
		c-0.9,0-1.8-0.2-2.6-0.5c-0.8-0.3-1.5-0.8-2-1.4c-0.6-0.6-1-1.3-1.3-2.2c-0.3-0.8-0.5-1.8-0.5-2.8c0-1,0.2-2,0.5-2.8
		s0.7-1.6,1.3-2.2c0.6-0.6,1.2-1.1,2-1.4c0.8-0.3,1.6-0.5,2.6-0.5c0.9,0,1.8,0.2,2.6,0.5s1.5,0.8,2,1.4c0.6,0.6,1,1.3,1.3,2.2
		S404.5,60.9,404.5,61.9z M403.5,61.9c0-0.9-0.1-1.8-0.4-2.5c-0.3-0.7-0.6-1.4-1.1-1.9s-1-0.9-1.7-1.2c-0.7-0.3-1.4-0.4-2.2-0.4
		c-0.8,0-1.5,0.1-2.2,0.4c-0.7,0.3-1.2,0.7-1.7,1.2s-0.8,1.1-1.1,1.9c-0.3,0.7-0.4,1.6-0.4,2.5c0,0.9,0.1,1.8,0.4,2.5
		c0.3,0.7,0.6,1.4,1.1,1.9s1,0.9,1.7,1.2c0.7,0.3,1.4,0.4,2.2,0.4c0.8,0,1.5-0.1,2.2-0.4c0.7-0.3,1.2-0.7,1.7-1.2s0.8-1.1,1.1-1.9
		C403.4,63.7,403.5,62.8,403.5,61.9z"/>
	<path fill="#FFFFFF" d="M408.6,62.5v6h-1V55.2h3.4c1.5,0,2.7,0.3,3.5,0.9c0.8,0.6,1.1,1.5,1.1,2.6c0,0.5-0.1,1-0.3,1.4
		c-0.2,0.4-0.4,0.8-0.8,1.1c-0.3,0.3-0.7,0.6-1.2,0.8c-0.5,0.2-1,0.3-1.6,0.4c0.2,0.1,0.3,0.2,0.4,0.4l4.6,5.8H416
		c-0.1,0-0.2,0-0.3-0.1s-0.1-0.1-0.2-0.2l-4.3-5.4c-0.1-0.1-0.1-0.1-0.2-0.2c-0.1-0.1-0.1-0.1-0.2-0.1c-0.1,0-0.1,0-0.2-0.1
		c-0.1,0-0.2,0-0.3,0H408.6z M408.6,61.8h2.3c0.6,0,1.1-0.1,1.6-0.2c0.5-0.1,0.9-0.3,1.2-0.6s0.6-0.6,0.7-1s0.3-0.8,0.3-1.3
		c0-1-0.3-1.7-0.9-2.1c-0.6-0.5-1.5-0.7-2.7-0.7h-2.4V61.8z"/>
	<path fill="#FFFFFF" d="M420.1,67.7h6.3v0.8h-7.3V55.2h1V67.7z"/>
	<path fill="#FFFFFF" d="M438.8,68.6h-0.7c-0.1,0-0.2,0-0.2-0.1s-0.1-0.1-0.1-0.2l-1.6-3.9h-6.6l-1.6,3.9c0,0.1-0.1,0.1-0.1,0.2
		c-0.1,0.1-0.1,0.1-0.2,0.1h-0.7l5.5-13.4h1L438.8,68.6z M429.9,63.7h6l-2.7-6.8c-0.1-0.2-0.2-0.5-0.3-0.8c0,0.2-0.1,0.3-0.1,0.4
		s-0.1,0.3-0.1,0.4L429.9,63.7z"/>
	<path fill="#FFFFFF" d="M441.7,55.2c0,0,0.1,0.1,0.2,0.1l8.7,11.6c0-0.2,0-0.4,0-0.5V55.2h0.8v13.4h-0.5c-0.1,0-0.1,0-0.2,0
		s-0.1-0.1-0.2-0.1l-8.7-11.6c0,0.2,0,0.4,0,0.5v11.3H441V55.2h0.5C441.6,55.2,441.7,55.2,441.7,55.2z"/>
	<path fill="#FFFFFF" d="M466.6,61.9c0,1-0.2,2-0.5,2.8c-0.3,0.8-0.7,1.5-1.3,2.1c-0.6,0.6-1.2,1-2,1.3s-1.6,0.5-2.6,0.5h-4.9V55.2
		h4.9c0.9,0,1.8,0.2,2.6,0.5s1.5,0.8,2,1.3c0.6,0.6,1,1.3,1.3,2.1C466.4,59.9,466.6,60.9,466.6,61.9z M465.6,61.9
		c0-0.9-0.1-1.8-0.4-2.5c-0.3-0.7-0.6-1.3-1.1-1.9c-0.5-0.5-1-0.9-1.7-1.2c-0.7-0.3-1.4-0.4-2.2-0.4h-3.9v11.8h3.9
		c0.8,0,1.5-0.1,2.2-0.4c0.7-0.3,1.2-0.6,1.7-1.2c0.5-0.5,0.8-1.1,1.1-1.9C465.5,63.7,465.6,62.8,465.6,61.9z"/>
	<path fill="#FFFFFF" d="M481.6,61.9c0,1-0.2,2-0.5,2.8c-0.3,0.8-0.7,1.6-1.3,2.2c-0.6,0.6-1.2,1.1-2,1.4c-0.8,0.3-1.6,0.5-2.6,0.5
		c-0.9,0-1.8-0.2-2.6-0.5c-0.8-0.3-1.5-0.8-2-1.4c-0.6-0.6-1-1.3-1.3-2.2c-0.3-0.8-0.5-1.8-0.5-2.8c0-1,0.2-2,0.5-2.8
		s0.7-1.6,1.3-2.2c0.6-0.6,1.2-1.1,2-1.4c0.8-0.3,1.6-0.5,2.6-0.5c0.9,0,1.8,0.2,2.6,0.5s1.5,0.8,2,1.4c0.6,0.6,1,1.3,1.3,2.2
		S481.6,60.9,481.6,61.9z M480.6,61.9c0-0.9-0.1-1.8-0.4-2.5c-0.3-0.7-0.6-1.4-1.1-1.9s-1-0.9-1.7-1.2c-0.7-0.3-1.4-0.4-2.2-0.4
		c-0.8,0-1.5,0.1-2.2,0.4c-0.7,0.3-1.2,0.7-1.7,1.2s-0.8,1.1-1.1,1.9c-0.3,0.7-0.4,1.6-0.4,2.5c0,0.9,0.1,1.8,0.4,2.5
		c0.3,0.7,0.6,1.4,1.1,1.9s1,0.9,1.7,1.2c0.7,0.3,1.4,0.4,2.2,0.4c0.8,0,1.5-0.1,2.2-0.4c0.7-0.3,1.2-0.7,1.7-1.2s0.8-1.1,1.1-1.9
		C480.4,63.7,480.6,62.8,480.6,61.9z"/>
	<path fill="#FFFFFF" d="M483.3,67.8c0-0.2,0.1-0.4,0.2-0.6c0.2-0.2,0.3-0.2,0.6-0.2c0.3,0,0.5,0.1,0.6,0.3c0.1,0.2,0.2,0.4,0.2,0.7
		c0,0.3,0,0.5-0.1,0.8s-0.2,0.5-0.3,0.8c-0.1,0.3-0.3,0.5-0.5,0.7c-0.2,0.2-0.4,0.5-0.6,0.7l-0.1-0.1c0,0-0.1-0.1-0.1-0.1
		c0,0,0-0.1,0-0.1c0,0,0-0.1,0.1-0.2c0.1-0.1,0.1-0.2,0.2-0.3c0.1-0.1,0.2-0.3,0.3-0.4s0.2-0.4,0.3-0.6c0.1-0.2,0.1-0.4,0.2-0.7
		c0,0-0.1,0-0.1,0c0,0-0.1,0-0.2,0c-0.2,0-0.4-0.1-0.6-0.2C483.4,68.2,483.3,68,483.3,67.8z"/>
	<path fill="#FFFFFF" d="M501.3,55.2V56h-7v5.6h6.1v0.8h-6.1v6.1h-1V55.2H501.3z"/>
	<path fill="#FFFFFF" d="M504.9,67.7h6.3v0.8h-7.3V55.2h1V67.7z"/>
	<path fill="#FFFFFF" d="M521.7,55c0.5,0,1,0.1,1.4,0.2c0.5,0.1,0.9,0.4,1.2,0.6c0.3,0.3,0.6,0.6,0.8,1.1c0.2,0.4,0.3,0.9,0.3,1.5
		c0,0.4-0.1,0.8-0.2,1.2s-0.3,0.7-0.6,0.9s-0.5,0.5-0.8,0.7c-0.3,0.2-0.7,0.3-1,0.4c1,0.2,1.7,0.6,2.2,1.1c0.5,0.6,0.8,1.3,0.8,2.2
		c0,0.5-0.1,1.1-0.3,1.5c-0.2,0.5-0.5,0.9-0.9,1.2c-0.4,0.3-0.8,0.6-1.4,0.8c-0.5,0.2-1.1,0.3-1.7,0.3c-0.8,0-1.4-0.1-1.9-0.3
		s-0.9-0.5-1.3-0.8c-0.3-0.3-0.6-0.7-0.8-1.1s-0.3-0.8-0.4-1.2l0.4-0.2c0.1,0,0.2-0.1,0.3,0s0.2,0.1,0.2,0.2c0,0.1,0.1,0.2,0.1,0.4
		c0.1,0.2,0.1,0.3,0.2,0.5c0.1,0.2,0.2,0.4,0.4,0.6c0.2,0.2,0.4,0.4,0.6,0.6c0.2,0.2,0.5,0.3,0.9,0.4c0.3,0.1,0.7,0.2,1.2,0.2
		c0.6,0,1.1-0.1,1.5-0.3s0.8-0.4,1.1-0.7c0.3-0.3,0.5-0.6,0.6-1s0.2-0.7,0.2-1.1c0-0.4-0.1-0.8-0.2-1.1c-0.1-0.4-0.3-0.7-0.6-0.9
		c-0.3-0.3-0.7-0.5-1.2-0.6c-0.5-0.1-1.1-0.2-1.8-0.2v-0.7c0.6,0,1.1-0.1,1.5-0.2s0.8-0.3,1.1-0.6s0.5-0.5,0.7-0.9s0.2-0.7,0.2-1.1
		c0-0.5-0.1-0.9-0.2-1.2c-0.2-0.3-0.4-0.6-0.6-0.9c-0.3-0.2-0.6-0.4-0.9-0.5s-0.7-0.2-1.1-0.2c-0.4,0-0.8,0.1-1.2,0.2
		c-0.4,0.1-0.7,0.3-0.9,0.5c-0.3,0.2-0.5,0.5-0.7,0.8c-0.2,0.3-0.3,0.7-0.4,1c0,0.1-0.1,0.2-0.2,0.3c-0.1,0-0.2,0.1-0.3,0l-0.5-0.1
		c0.1-0.6,0.2-1.1,0.5-1.5c0.2-0.4,0.5-0.8,0.9-1.1c0.4-0.3,0.8-0.5,1.2-0.7S521.2,55,521.7,55z"/>
	<path fill="#FFFFFF" d="M532.6,55c0.5,0,1,0.1,1.5,0.2c0.5,0.1,0.9,0.4,1.2,0.7c0.4,0.3,0.6,0.7,0.8,1.1s0.3,1,0.3,1.6
		c0,0.5-0.1,1-0.2,1.4c-0.2,0.4-0.4,0.8-0.6,1.2s-0.6,0.8-0.9,1.2c-0.3,0.4-0.7,0.8-1.1,1.1l-4.2,4.3c0.2-0.1,0.4-0.1,0.6-0.1
		c0.2,0,0.4,0,0.7,0h5.8c0.1,0,0.2,0,0.2,0.1c0.1,0.1,0.1,0.1,0.1,0.2v0.5h-8.6v-0.3c0-0.1,0-0.1,0.1-0.2c0-0.1,0.1-0.1,0.1-0.2
		l4.6-4.6c0.4-0.4,0.7-0.8,1-1.1c0.3-0.4,0.6-0.7,0.8-1.1s0.4-0.7,0.6-1.1c0.1-0.4,0.2-0.8,0.2-1.2c0-0.5-0.1-0.9-0.2-1.3
		c-0.2-0.4-0.4-0.7-0.7-0.9c-0.3-0.2-0.6-0.4-0.9-0.5c-0.4-0.1-0.7-0.2-1.1-0.2c-0.4,0-0.8,0.1-1.2,0.2c-0.4,0.1-0.7,0.3-0.9,0.5
		c-0.3,0.2-0.5,0.5-0.7,0.8c-0.2,0.3-0.3,0.7-0.4,1c0,0.1-0.1,0.2-0.2,0.3s-0.2,0.1-0.3,0l-0.5-0.1c0.1-0.6,0.2-1.1,0.5-1.5
		s0.5-0.8,0.9-1.1c0.4-0.3,0.8-0.5,1.2-0.7S532.1,55,532.6,55z"/>
	<path fill="#FFFFFF" d="M543.5,68.7c-0.6,0-1.2-0.1-1.8-0.3c-0.5-0.2-1-0.4-1.4-0.7c-0.4-0.3-0.7-0.7-0.9-1.2s-0.3-1-0.3-1.5
		c0-0.5,0.1-0.9,0.2-1.3c0.1-0.4,0.3-0.7,0.6-1c0.3-0.3,0.6-0.5,0.9-0.7c0.4-0.2,0.7-0.3,1.2-0.4c-0.4-0.1-0.7-0.3-1-0.5
		s-0.6-0.4-0.8-0.7c-0.2-0.3-0.4-0.6-0.5-0.9c-0.1-0.3-0.2-0.7-0.2-1.1c0-0.5,0.1-0.9,0.3-1.3c0.2-0.4,0.4-0.8,0.8-1.1
		s0.7-0.6,1.2-0.7s1-0.3,1.6-0.3c0.6,0,1.1,0.1,1.6,0.3s0.9,0.4,1.2,0.7s0.6,0.7,0.8,1.1c0.2,0.4,0.3,0.9,0.3,1.3
		c0,0.4-0.1,0.7-0.2,1.1c-0.1,0.3-0.3,0.6-0.5,0.9c-0.2,0.3-0.5,0.5-0.8,0.7c-0.3,0.2-0.6,0.3-1,0.5c0.4,0.1,0.8,0.2,1.2,0.4
		c0.4,0.2,0.7,0.4,0.9,0.7c0.3,0.3,0.5,0.6,0.6,1c0.1,0.4,0.2,0.8,0.2,1.3c0,0.6-0.1,1.1-0.3,1.5s-0.5,0.8-0.9,1.2
		c-0.4,0.3-0.8,0.6-1.4,0.7C544.7,68.6,544.1,68.7,543.5,68.7z M543.5,68c0.5,0,1-0.1,1.4-0.2c0.4-0.1,0.8-0.3,1.1-0.6
		c0.3-0.3,0.5-0.6,0.7-0.9c0.2-0.4,0.2-0.8,0.2-1.2c0-0.6-0.1-1.1-0.3-1.5c-0.2-0.4-0.5-0.7-0.8-0.9c-0.3-0.2-0.7-0.4-1.1-0.5
		s-0.8-0.1-1.2-0.1s-0.8,0-1.2,0.1s-0.8,0.3-1.1,0.5c-0.3,0.2-0.6,0.5-0.8,0.9c-0.2,0.4-0.3,0.9-0.3,1.5c0,0.4,0.1,0.9,0.2,1.2
		c0.2,0.4,0.4,0.7,0.7,0.9s0.7,0.5,1.1,0.6C542.5,67.9,543,68,543.5,68z M543.5,61.3c0.5,0,1-0.1,1.3-0.2c0.4-0.2,0.7-0.4,0.9-0.6
		c0.2-0.3,0.4-0.6,0.5-0.9c0.1-0.3,0.2-0.7,0.2-1c0-0.4-0.1-0.7-0.2-1.1c-0.1-0.3-0.3-0.6-0.6-0.9c-0.3-0.2-0.6-0.4-0.9-0.6
		c-0.4-0.1-0.8-0.2-1.3-0.2s-0.9,0.1-1.3,0.2c-0.4,0.1-0.7,0.3-0.9,0.6c-0.3,0.2-0.4,0.5-0.6,0.9c-0.1,0.3-0.2,0.7-0.2,1.1
		c0,0.4,0.1,0.7,0.2,1c0.1,0.3,0.3,0.6,0.5,0.9c0.2,0.3,0.6,0.5,0.9,0.6C542.5,61.2,543,61.3,543.5,61.3z"/>
	<path fill="#FFFFFF" d="M551.5,67.9h3.1V57c0-0.2,0-0.4,0-0.7l-2.9,2.6c-0.1,0.1-0.2,0.1-0.3,0.1c-0.1,0-0.2-0.1-0.2-0.1l-0.3-0.4
		l3.9-3.4h0.7v12.7h2.9v0.7h-6.9V67.9z"/>
	<path fill="#FFFFFF" d="M567,63.1c0.2-0.3,0.4-0.5,0.5-0.8s0.3-0.5,0.4-0.7c-0.4,0.4-0.8,0.7-1.3,1c-0.5,0.2-1.1,0.3-1.7,0.3
		c-0.5,0-1.1-0.1-1.5-0.3c-0.5-0.2-0.9-0.4-1.2-0.8c-0.3-0.3-0.6-0.7-0.8-1.2c-0.2-0.5-0.3-1-0.3-1.6c0-0.6,0.1-1.1,0.3-1.6
		c0.2-0.5,0.5-0.9,0.9-1.3c0.4-0.4,0.8-0.6,1.3-0.8c0.5-0.2,1.1-0.3,1.7-0.3c0.6,0,1.1,0.1,1.6,0.3c0.5,0.2,0.9,0.5,1.3,0.9
		c0.4,0.4,0.6,0.8,0.8,1.3c0.2,0.5,0.3,1.1,0.3,1.7c0,0.3,0,0.7-0.1,1s-0.2,0.6-0.3,0.9s-0.3,0.6-0.5,1c-0.2,0.3-0.4,0.7-0.7,1.1
		l-3.5,5.1c-0.1,0.1-0.2,0.2-0.5,0.2h-0.8L567,63.1z M568.6,59.1c0-0.5-0.1-0.9-0.2-1.3c-0.2-0.4-0.4-0.7-0.7-1
		c-0.3-0.3-0.6-0.5-1-0.7s-0.8-0.2-1.3-0.2c-0.5,0-1,0.1-1.4,0.2c-0.4,0.2-0.8,0.4-1.1,0.7c-0.3,0.3-0.5,0.6-0.7,1s-0.2,0.8-0.2,1.3
		c0,0.5,0.1,0.9,0.2,1.3c0.1,0.4,0.4,0.7,0.6,1c0.3,0.3,0.6,0.5,1,0.6s0.8,0.2,1.3,0.2c0.5,0,1-0.1,1.4-0.3c0.4-0.2,0.8-0.4,1.1-0.7
		c0.3-0.3,0.5-0.6,0.7-1C568.5,59.8,568.6,59.5,568.6,59.1z"/>
</g>
</svg>
