<?xml version="1.0" encoding="utf-8"?>
<!-- Generator: Adobe Illustrator 18.1.0, SVG Export Plug-In . SVG Version: 6.00 Build 0)  -->
<!DOCTYPE svg PUBLIC "-//W3C//DTD SVG 1.1//EN" "http://www.w3.org/Graphics/SVG/1.1/DTD/svg11.dtd">
<svg version="1.1" id="Layer_1" xmlns="http://www.w3.org/2000/svg" xmlns:xlink="http://www.w3.org/1999/xlink" x="0px" y="0px"
	 viewBox="0 0 49.9 49.9" enable-background="new 0 0 49.9 49.9" xml:space="preserve">
<g>
	<g>
		
			<path fill="none" stroke="#FFFFFF" stroke-width="2.0807" stroke-linecap="round" stroke-linejoin="round" stroke-miterlimit="10" d="
			M11.4,11.4c0,1.1,0.9,2.1,2.1,2.1c1.1,0,2.1-0.9,2.1-2.1V3.1C15.6,2,14.7,1,13.5,1c-1.2,0-2.1,0.9-2.1,2.1V11.4z"/>
		
			<path fill="none" stroke="#FFFFFF" stroke-width="2.0807" stroke-linecap="round" stroke-linejoin="round" stroke-miterlimit="10" d="
			M34.3,11.4c0,1.1,0.9,2.1,2.1,2.1c1.1,0,2.1-0.9,2.1-2.1V3.1C38.5,2,37.6,1,36.4,1c-1.2,0-2.1,0.9-2.1,2.1V11.4z"/>
		
			<rect x="36.4" y="21.8" fill="none" stroke="#FFFFFF" stroke-width="2.0807" stroke-linecap="round" stroke-linejoin="round" stroke-miterlimit="10" width="6.2" height="6.2"/>
		
			<rect x="21.9" y="21.8" fill="none" stroke="#FFFFFF" stroke-width="2.0807" stroke-linecap="round" stroke-linejoin="round" stroke-miterlimit="10" width="6.2" height="6.2"/>
		
			<rect x="7.3" y="34.3" fill="none" stroke="#FFFFFF" stroke-width="2.0807" stroke-linecap="round" stroke-linejoin="round" stroke-miterlimit="10" width="6.2" height="6.2"/>
		
			<rect x="21.8" y="34.3" fill="none" stroke="#FFFFFF" stroke-width="2.0807" stroke-linecap="round" stroke-linejoin="round" stroke-miterlimit="10" width="6.2" height="6.2"/>
		
			<rect x="36.4" y="34.3" fill="none" stroke="#FFFFFF" stroke-width="2.0807" stroke-linecap="round" stroke-linejoin="round" stroke-miterlimit="10" width="6.2" height="6.2"/>
		<g>
			
				<line fill="none" stroke="#FFFFFF" stroke-width="2.0807" stroke-linecap="round" stroke-linejoin="round" stroke-miterlimit="10" x1="7.3" y1="28.1" x2="13.5" y2="21.8"/>
			
				<line fill="none" stroke="#FFFFFF" stroke-width="2.0807" stroke-linecap="round" stroke-linejoin="round" stroke-miterlimit="10" x1="7.3" y1="21.8" x2="13.5" y2="28.1"/>
		</g>
		<g>
			
				<path fill="none" stroke="#FFFFFF" stroke-width="2.0807" stroke-linecap="round" stroke-linejoin="round" stroke-miterlimit="10" d="
				M28.1,21.8"/>
			
				<path fill="none" stroke="#FFFFFF" stroke-width="2.0807" stroke-linecap="round" stroke-linejoin="round" stroke-miterlimit="10" d="
				M21.8,28.1"/>
			
				<path fill="none" stroke="#FFFFFF" stroke-width="2.0807" stroke-linecap="round" stroke-linejoin="round" stroke-miterlimit="10" d="
				M28.1,28.1"/>
			
				<path fill="none" stroke="#FFFFFF" stroke-width="2.0807" stroke-linecap="round" stroke-linejoin="round" stroke-miterlimit="10" d="
				M21.8,21.8"/>
		</g>
		
			<polyline fill="none" stroke="#FFFFFF" stroke-width="2.0807" stroke-linecap="round" stroke-linejoin="round" stroke-miterlimit="10" points="
			38.5,7.3 48.9,7.3 48.9,48.9 1,48.9 1,7.3 11.4,7.3 		"/>
		
			<line fill="none" stroke="#FFFFFF" stroke-width="2.0807" stroke-linecap="round" stroke-linejoin="round" stroke-miterlimit="10" x1="15.6" y1="7.3" x2="34.3" y2="7.3"/>
	</g>
</g>
</svg>
