<?xml version="1.0" encoding="utf-8"?>
<!-- Generator: Adobe Illustrator 18.1.0, SVG Export Plug-In . SVG Version: 6.00 Build 0)  -->
<!DOCTYPE svg PUBLIC "-//W3C//DTD SVG 1.1//EN" "http://www.w3.org/Graphics/SVG/1.1/DTD/svg11.dtd">
<svg version="1.1" id="Layer_1" xmlns="http://www.w3.org/2000/svg" xmlns:xlink="http://www.w3.org/1999/xlink" x="0px" y="0px"
	 viewBox="0 0 960 560" enable-background="new 0 0 960 560" xml:space="preserve">
<g>
	<g>
		
			<path fill="none" stroke="#FFFFFF" stroke-width="2.0807" stroke-linecap="round" stroke-linejoin="round" stroke-miterlimit="10" d="
			M461.7,249.6c0,1.1,0.9,2.1,2.1,2.1c1.1,0,2.1-0.9,2.1-2.1v-8.3c0-1.1-0.9-2.1-2.1-2.1c-1.2,0-2.1,0.9-2.1,2.1V249.6z"/>
		
			<path fill="none" stroke="#FFFFFF" stroke-width="2.0807" stroke-linecap="round" stroke-linejoin="round" stroke-miterlimit="10" d="
			M484.6,249.6c0,1.1,0.9,2.1,2.1,2.1c1.1,0,2.1-0.9,2.1-2.1v-8.3c0-1.1-0.9-2.1-2.1-2.1c-1.2,0-2.1,0.9-2.1,2.1V249.6z"/>
		
			<rect x="486.7" y="260" fill="none" stroke="#FFFFFF" stroke-width="2.0807" stroke-linecap="round" stroke-linejoin="round" stroke-miterlimit="10" width="6.2" height="6.2"/>
		
			<rect x="457.6" y="272.5" fill="none" stroke="#FFFFFF" stroke-width="2.0807" stroke-linecap="round" stroke-linejoin="round" stroke-miterlimit="10" width="6.2" height="6.2"/>
		
			<rect x="472.1" y="272.5" fill="none" stroke="#FFFFFF" stroke-width="2.0807" stroke-linecap="round" stroke-linejoin="round" stroke-miterlimit="10" width="6.2" height="6.2"/>
		
			<rect x="486.7" y="272.5" fill="none" stroke="#FFFFFF" stroke-width="2.0807" stroke-linecap="round" stroke-linejoin="round" stroke-miterlimit="10" width="6.2" height="6.2"/>
		<g>
			
				<line fill="none" stroke="#FFFFFF" stroke-width="2.0807" stroke-linecap="round" stroke-linejoin="round" stroke-miterlimit="10" x1="457.6" y1="266.3" x2="463.8" y2="260"/>
			
				<line fill="none" stroke="#FFFFFF" stroke-width="2.0807" stroke-linecap="round" stroke-linejoin="round" stroke-miterlimit="10" x1="457.6" y1="260" x2="463.8" y2="266.3"/>
		</g>
		<g>
			
				<line fill="none" stroke="#FFFFFF" stroke-width="2.0807" stroke-linecap="round" stroke-linejoin="round" stroke-miterlimit="10" x1="472.1" y1="266.3" x2="478.4" y2="260"/>
			
				<line fill="none" stroke="#FFFFFF" stroke-width="2.0807" stroke-linecap="round" stroke-linejoin="round" stroke-miterlimit="10" x1="472.1" y1="260" x2="478.4" y2="266.3"/>
		</g>
		
			<polyline fill="none" stroke="#FFFFFF" stroke-width="2.0807" stroke-linecap="round" stroke-linejoin="round" stroke-miterlimit="10" points="
			488.8,245.5 499.2,245.5 499.2,287.1 451.3,287.1 451.3,245.5 461.7,245.5 		"/>
		
			<line fill="none" stroke="#FFFFFF" stroke-width="2.0807" stroke-linecap="round" stroke-linejoin="round" stroke-miterlimit="10" x1="465.9" y1="245.5" x2="484.6" y2="245.5"/>
	</g>
	<g>
		<path fill="#FFFFFF" d="M436.4,316h-0.7c-0.1,0-0.2,0-0.2-0.1c-0.1,0-0.1-0.1-0.1-0.2l-1.5-3.6h-6.2l-1.5,3.6
			c0,0.1-0.1,0.1-0.1,0.2c-0.1,0-0.1,0.1-0.2,0.1h-0.7l5.1-12.5h0.9L436.4,316z M428.1,311.4h5.6l-2.5-6.3c-0.1-0.2-0.2-0.5-0.3-0.7
			c0,0.1-0.1,0.3-0.1,0.4c0,0.1-0.1,0.2-0.1,0.3L428.1,311.4z"/>
		<path fill="#FFFFFF" d="M446.3,315.8c-0.7,0.2-1.5,0.4-2.4,0.4c-1,0-1.9-0.2-2.7-0.5c-0.8-0.3-1.5-0.7-2-1.3s-1-1.2-1.3-2
			s-0.4-1.7-0.4-2.6s0.1-1.8,0.4-2.6c0.3-0.8,0.7-1.5,1.3-2s1.2-1,2-1.3c0.8-0.3,1.6-0.5,2.6-0.5c0.5,0,0.9,0,1.3,0.1
			c0.4,0.1,0.8,0.2,1.1,0.3c0.3,0.1,0.7,0.3,1,0.5c0.3,0.2,0.6,0.4,0.9,0.6l-0.2,0.4c-0.1,0.1-0.2,0.2-0.4,0.1
			c-0.1,0-0.2-0.1-0.4-0.2c-0.2-0.1-0.4-0.3-0.7-0.4c-0.3-0.1-0.6-0.3-1.1-0.4s-0.9-0.2-1.6-0.2c-0.8,0-1.6,0.1-2.2,0.4
			c-0.7,0.3-1.2,0.6-1.7,1.1c-0.5,0.5-0.8,1.1-1.1,1.8s-0.4,1.5-0.4,2.3c0,0.9,0.1,1.7,0.4,2.4s0.6,1.3,1.1,1.8
			c0.5,0.5,1.1,0.9,1.7,1.1s1.4,0.4,2.3,0.4c0.4,0,0.7,0,1-0.1c0.3,0,0.6-0.1,0.9-0.2s0.6-0.2,0.8-0.3s0.5-0.3,0.8-0.4V311H445
			c-0.1,0-0.1,0-0.2-0.1c0,0-0.1-0.1-0.1-0.1v-0.5h3.5v4.5C447.6,315.2,447,315.5,446.3,315.8z"/>
		<path fill="#FFFFFF" d="M458.8,303.5v0.8h-6.6v5.1h5.5v0.7h-5.5v5.2h6.6l0,0.8h-7.5v-12.5H458.8z"/>
		<path fill="#FFFFFF" d="M462.2,303.5c0,0,0.1,0.1,0.1,0.1l8.1,10.9c0-0.2,0-0.3,0-0.5v-10.5h0.8V316h-0.4c-0.1,0-0.1,0-0.2,0
			c0,0-0.1-0.1-0.1-0.1l-8.1-10.9c0,0.2,0,0.3,0,0.5V316h-0.8v-12.5h0.5C462.1,303.5,462.1,303.5,462.2,303.5z"/>
		<path fill="#FFFFFF" d="M485.4,309.7c0,1-0.1,1.8-0.4,2.6s-0.7,1.4-1.2,2c-0.5,0.5-1.2,1-1.9,1.2c-0.7,0.3-1.5,0.4-2.4,0.4h-4.6
			v-12.5h4.6c0.9,0,1.7,0.1,2.4,0.4c0.7,0.3,1.4,0.7,1.9,1.2c0.5,0.5,0.9,1.2,1.2,2C485.3,307.9,485.4,308.8,485.4,309.7z
			 M484.5,309.7c0-0.9-0.1-1.7-0.4-2.3s-0.6-1.3-1-1.7c-0.4-0.5-1-0.8-1.6-1.1c-0.6-0.2-1.3-0.4-2.1-0.4h-3.7v11.1h3.7
			c0.8,0,1.4-0.1,2.1-0.4c0.6-0.2,1.2-0.6,1.6-1.1c0.4-0.5,0.8-1,1-1.7S484.5,310.6,484.5,309.7z"/>
		<path fill="#FFFFFF" d="M497.6,316h-0.7c-0.1,0-0.2,0-0.2-0.1c-0.1,0-0.1-0.1-0.1-0.2l-1.5-3.6h-6.2l-1.5,3.6
			c0,0.1-0.1,0.1-0.1,0.2c-0.1,0-0.1,0.1-0.2,0.1h-0.7l5.1-12.5h0.9L497.6,316z M489.2,311.4h5.6l-2.5-6.3c-0.1-0.2-0.2-0.5-0.3-0.7
			c0,0.1-0.1,0.3-0.1,0.4c0,0.1-0.1,0.2-0.1,0.3L489.2,311.4z"/>
		<path fill="#FFFFFF" d="M514.4,309.7c0,1-0.1,1.8-0.4,2.6s-0.7,1.4-1.2,2c-0.5,0.5-1.2,1-1.9,1.2c-0.7,0.3-1.5,0.4-2.4,0.4h-4.6
			v-12.5h4.6c0.9,0,1.7,0.1,2.4,0.4c0.7,0.3,1.4,0.7,1.9,1.2c0.5,0.5,0.9,1.2,1.2,2C514.3,307.9,514.4,308.8,514.4,309.7z
			 M513.5,309.7c0-0.9-0.1-1.7-0.4-2.3s-0.6-1.3-1-1.7c-0.4-0.5-1-0.8-1.6-1.1c-0.6-0.2-1.3-0.4-2.1-0.4h-3.7v11.1h3.7
			c0.8,0,1.4-0.1,2.1-0.4c0.6-0.2,1.2-0.6,1.6-1.1c0.4-0.5,0.8-1,1-1.7S513.5,310.6,513.5,309.7z"/>
		<path fill="#FFFFFF" d="M520.7,303.3c0.5,0,0.9,0.1,1.4,0.2s0.8,0.3,1.2,0.6c0.3,0.3,0.6,0.6,0.8,1.1c0.2,0.4,0.3,0.9,0.3,1.5
			c0,0.5-0.1,0.9-0.2,1.3s-0.3,0.8-0.6,1.2c-0.2,0.4-0.5,0.7-0.9,1.1c-0.3,0.4-0.7,0.7-1,1.1l-3.9,4c0.2,0,0.4-0.1,0.6-0.1
			c0.2,0,0.4,0,0.6,0h5.4c0.1,0,0.2,0,0.2,0.1c0.1,0.1,0.1,0.1,0.1,0.2v0.5h-8.1v-0.3c0-0.1,0-0.1,0-0.2c0-0.1,0.1-0.1,0.1-0.2
			l4.3-4.3c0.4-0.4,0.7-0.7,1-1c0.3-0.3,0.6-0.7,0.8-1c0.2-0.3,0.4-0.7,0.5-1.1c0.1-0.4,0.2-0.7,0.2-1.2c0-0.5-0.1-0.9-0.2-1.2
			c-0.2-0.3-0.4-0.6-0.6-0.8c-0.3-0.2-0.5-0.4-0.9-0.5c-0.3-0.1-0.7-0.2-1-0.2c-0.4,0-0.8,0.1-1.1,0.2c-0.3,0.1-0.6,0.3-0.9,0.5
			c-0.3,0.2-0.5,0.5-0.6,0.8s-0.3,0.6-0.3,1c0,0.1-0.1,0.2-0.2,0.3c-0.1,0-0.2,0.1-0.3,0l-0.4-0.1c0.1-0.5,0.2-1,0.4-1.4
			c0.2-0.4,0.5-0.8,0.8-1.1c0.3-0.3,0.7-0.5,1.2-0.7S520.2,303.3,520.7,303.3z"/>
	</g>
</g>
</svg>
