<?xml version="1.0" encoding="utf-8"?>
<!-- Generator: Adobe Illustrator 18.1.0, SVG Export Plug-In . SVG Version: 6.00 Build 0)  -->
<!DOCTYPE svg PUBLIC "-//W3C//DTD SVG 1.1//EN" "http://www.w3.org/Graphics/SVG/1.1/DTD/svg11.dtd">
<svg version="1.1" id="Layer_1" xmlns="http://www.w3.org/2000/svg" xmlns:xlink="http://www.w3.org/1999/xlink" x="0px" y="0px"
	 viewBox="0 0 960 560" enable-background="new 0 0 960 560" xml:space="preserve">
<g>
	<g>
		
			<path fill="none" stroke="#FFFFFF" stroke-width="2.0807" stroke-linecap="round" stroke-linejoin="round" stroke-miterlimit="10" d="
			M461.3,249c0,1.1,0.9,2.1,2.1,2.1c1.1,0,2.1-0.9,2.1-2.1v-8.3c0-1.1-0.9-2.1-2.1-2.1c-1.2,0-2.1,0.9-2.1,2.1V249z"/>
		
			<path fill="none" stroke="#FFFFFF" stroke-width="2.0807" stroke-linecap="round" stroke-linejoin="round" stroke-miterlimit="10" d="
			M484.2,249c0,1.1,0.9,2.1,2.1,2.1c1.1,0,2.1-0.9,2.1-2.1v-8.3c0-1.1-0.9-2.1-2.1-2.1c-1.2,0-2.1,0.9-2.1,2.1V249z"/>
		
			<rect x="486.3" y="259.4" fill="none" stroke="#FFFFFF" stroke-width="2.0807" stroke-linecap="round" stroke-linejoin="round" stroke-miterlimit="10" width="6.2" height="6.2"/>
		
			<rect x="471.8" y="259.4" fill="none" stroke="#FFFFFF" stroke-width="2.0807" stroke-linecap="round" stroke-linejoin="round" stroke-miterlimit="10" width="6.2" height="6.2"/>
		
			<rect x="457.2" y="271.9" fill="none" stroke="#FFFFFF" stroke-width="2.0807" stroke-linecap="round" stroke-linejoin="round" stroke-miterlimit="10" width="6.2" height="6.2"/>
		
			<rect x="471.7" y="271.9" fill="none" stroke="#FFFFFF" stroke-width="2.0807" stroke-linecap="round" stroke-linejoin="round" stroke-miterlimit="10" width="6.2" height="6.2"/>
		
			<rect x="486.3" y="271.9" fill="none" stroke="#FFFFFF" stroke-width="2.0807" stroke-linecap="round" stroke-linejoin="round" stroke-miterlimit="10" width="6.2" height="6.2"/>
		<g>
			
				<line fill="none" stroke="#FFFFFF" stroke-width="2.0807" stroke-linecap="round" stroke-linejoin="round" stroke-miterlimit="10" x1="457.2" y1="265.7" x2="463.4" y2="259.4"/>
			
				<line fill="none" stroke="#FFFFFF" stroke-width="2.0807" stroke-linecap="round" stroke-linejoin="round" stroke-miterlimit="10" x1="457.2" y1="259.4" x2="463.4" y2="265.7"/>
		</g>
		<g>
			
				<path fill="none" stroke="#FFFFFF" stroke-width="2.0807" stroke-linecap="round" stroke-linejoin="round" stroke-miterlimit="10" d="
				M478,259.4"/>
			
				<path fill="none" stroke="#FFFFFF" stroke-width="2.0807" stroke-linecap="round" stroke-linejoin="round" stroke-miterlimit="10" d="
				M471.7,265.7"/>
			
				<path fill="none" stroke="#FFFFFF" stroke-width="2.0807" stroke-linecap="round" stroke-linejoin="round" stroke-miterlimit="10" d="
				M478,265.7"/>
			
				<path fill="none" stroke="#FFFFFF" stroke-width="2.0807" stroke-linecap="round" stroke-linejoin="round" stroke-miterlimit="10" d="
				M471.7,259.4"/>
		</g>
		
			<polyline fill="none" stroke="#FFFFFF" stroke-width="2.0807" stroke-linecap="round" stroke-linejoin="round" stroke-miterlimit="10" points="
			488.4,244.9 498.8,244.9 498.8,286.5 450.9,286.5 450.9,244.9 461.3,244.9 		"/>
		
			<line fill="none" stroke="#FFFFFF" stroke-width="2.0807" stroke-linecap="round" stroke-linejoin="round" stroke-miterlimit="10" x1="465.5" y1="244.9" x2="484.2" y2="244.9"/>
	</g>
	<g>
		<path fill="#FFFFFF" d="M436.4,316.4h-0.7c-0.1,0-0.2,0-0.2-0.1c-0.1,0-0.1-0.1-0.1-0.2l-1.5-3.6h-6.2l-1.5,3.6
			c0,0.1-0.1,0.1-0.1,0.2c-0.1,0-0.1,0.1-0.2,0.1h-0.7l5.1-12.5h0.9L436.4,316.4z M428,311.9h5.6l-2.5-6.3c-0.1-0.2-0.2-0.5-0.3-0.7
			c0,0.1-0.1,0.3-0.1,0.4s-0.1,0.2-0.1,0.3L428,311.9z"/>
		<path fill="#FFFFFF" d="M446.2,316.2c-0.7,0.2-1.5,0.4-2.4,0.4c-1,0-1.9-0.2-2.7-0.5c-0.8-0.3-1.5-0.7-2-1.3s-1-1.2-1.3-2
			c-0.3-0.8-0.4-1.7-0.4-2.6s0.1-1.8,0.4-2.6c0.3-0.8,0.7-1.5,1.3-2s1.2-1,2-1.3c0.8-0.3,1.6-0.5,2.6-0.5c0.5,0,0.9,0,1.3,0.1
			c0.4,0.1,0.8,0.2,1.1,0.3c0.3,0.1,0.7,0.3,1,0.5c0.3,0.2,0.6,0.4,0.9,0.6l-0.2,0.4c-0.1,0.1-0.2,0.2-0.4,0.1
			c-0.1,0-0.2-0.1-0.4-0.2c-0.2-0.1-0.4-0.3-0.7-0.4c-0.3-0.1-0.6-0.3-1.1-0.4c-0.4-0.1-0.9-0.2-1.6-0.2c-0.8,0-1.6,0.1-2.2,0.4
			c-0.7,0.3-1.2,0.6-1.7,1.1s-0.8,1.1-1.1,1.8s-0.4,1.5-0.4,2.3c0,0.9,0.1,1.7,0.4,2.4s0.6,1.3,1.1,1.8s1.1,0.9,1.7,1.1
			s1.4,0.4,2.3,0.4c0.4,0,0.7,0,1-0.1c0.3,0,0.6-0.1,0.9-0.2c0.3-0.1,0.6-0.2,0.8-0.3s0.5-0.3,0.8-0.4v-3.4H445
			c-0.1,0-0.1,0-0.2-0.1c0,0-0.1-0.1-0.1-0.1v-0.5h3.5v4.5C447.6,315.6,446.9,316,446.2,316.2z"/>
		<path fill="#FFFFFF" d="M458.7,303.9v0.8h-6.6v5.1h5.5v0.7h-5.5v5.2h6.6l0,0.8h-7.5v-12.5H458.7z"/>
		<path fill="#FFFFFF" d="M462.1,303.9c0,0,0.1,0.1,0.1,0.1l8.1,10.9c0-0.2,0-0.3,0-0.5v-10.5h0.8v12.5h-0.4c-0.1,0-0.1,0-0.2,0
			c0,0-0.1-0.1-0.1-0.1l-8.1-10.9c0,0.2,0,0.3,0,0.5v10.5h-0.8v-12.5h0.5C462,303.9,462.1,303.9,462.1,303.9z"/>
		<path fill="#FFFFFF" d="M485.4,310.1c0,1-0.1,1.8-0.4,2.6s-0.7,1.4-1.2,2c-0.5,0.5-1.2,1-1.9,1.2c-0.7,0.3-1.5,0.4-2.4,0.4h-4.6
			v-12.5h4.6c0.9,0,1.7,0.1,2.4,0.4c0.7,0.3,1.4,0.7,1.9,1.2c0.5,0.5,0.9,1.2,1.2,2S485.4,309.2,485.4,310.1z M484.5,310.1
			c0-0.9-0.1-1.7-0.4-2.3s-0.6-1.3-1-1.7c-0.4-0.5-1-0.8-1.6-1.1c-0.6-0.2-1.3-0.4-2.1-0.4h-3.7v11.1h3.7c0.8,0,1.4-0.1,2.1-0.4
			c0.6-0.2,1.2-0.6,1.6-1.1c0.4-0.5,0.8-1,1-1.7S484.5,311,484.5,310.1z"/>
		<path fill="#FFFFFF" d="M497.5,316.4h-0.7c-0.1,0-0.2,0-0.2-0.1c-0.1,0-0.1-0.1-0.1-0.2l-1.5-3.6h-6.2l-1.5,3.6
			c0,0.1-0.1,0.1-0.1,0.2c-0.1,0-0.1,0.1-0.2,0.1h-0.7l5.1-12.5h0.9L497.5,316.4z M489.2,311.9h5.6l-2.5-6.3
			c-0.1-0.2-0.2-0.5-0.3-0.7c0,0.1-0.1,0.3-0.1,0.4s-0.1,0.2-0.1,0.3L489.2,311.9z"/>
		<path fill="#FFFFFF" d="M514.4,310.1c0,1-0.1,1.8-0.4,2.6s-0.7,1.4-1.2,2c-0.5,0.5-1.2,1-1.9,1.2c-0.7,0.3-1.5,0.4-2.4,0.4h-4.6
			v-12.5h4.6c0.9,0,1.7,0.1,2.4,0.4c0.7,0.3,1.4,0.7,1.9,1.2c0.5,0.5,0.9,1.2,1.2,2S514.4,309.2,514.4,310.1z M513.5,310.1
			c0-0.9-0.1-1.7-0.4-2.3s-0.6-1.3-1-1.7c-0.4-0.5-1-0.8-1.6-1.1c-0.6-0.2-1.3-0.4-2.1-0.4h-3.7v11.1h3.7c0.8,0,1.4-0.1,2.1-0.4
			c0.6-0.2,1.2-0.6,1.6-1.1c0.4-0.5,0.8-1,1-1.7S513.5,311,513.5,310.1z"/>
		<path fill="#FFFFFF" d="M517.8,315.7h2.9v-10.2c0-0.2,0-0.4,0-0.6l-2.8,2.5c-0.1,0.1-0.2,0.1-0.2,0.1c-0.1,0-0.1-0.1-0.2-0.1
			l-0.3-0.4l3.6-3.2h0.7v11.9h2.7v0.7h-6.5V315.7z"/>
	</g>
</g>
</svg>
