<?xml version="1.0" encoding="utf-8"?>
<!-- Generator: Adobe Illustrator 18.1.0, SVG Export Plug-In . SVG Version: 6.00 Build 0)  -->
<!DOCTYPE svg PUBLIC "-//W3C//DTD SVG 1.1//EN" "http://www.w3.org/Graphics/SVG/1.1/DTD/svg11.dtd">
<svg version="1.1" id="Layer_1" xmlns="http://www.w3.org/2000/svg" xmlns:xlink="http://www.w3.org/1999/xlink" x="0px" y="0px"
	 viewBox="0 0 43 35.8" enable-background="new 0 0 43 35.8" xml:space="preserve">
<g>
	
		<path fill="none" stroke="#FFFFFF" stroke-width="1.7908" stroke-linecap="round" stroke-linejoin="round" stroke-miterlimit="10" d="
		M15.2,24.2c1,0,1.8-0.8,1.8-1.8v-2.7l-3.6-1.8l0.9-1.8v-3.6c0-1.5-1.2-2.7-2.7-2.7c-1.5,0-2.7,1.2-2.7,2.7v3.6l0.9,1.8l-3.6,1.8
		v2.7c0,1,0.8,1.8,1.8,1.8H15.2z"/>
	<g>
		
			<line fill="none" stroke="#FFFFFF" stroke-width="1.7908" stroke-linecap="round" stroke-linejoin="round" stroke-miterlimit="10" x1="22.4" y1="13.4" x2="36.7" y2="13.4"/>
		
			<line fill="none" stroke="#FFFFFF" stroke-width="1.7908" stroke-linecap="round" stroke-linejoin="round" stroke-miterlimit="10" x1="22.4" y1="18.8" x2="36.7" y2="18.8"/>
		
			<line fill="none" stroke="#FFFFFF" stroke-width="1.7908" stroke-linecap="round" stroke-linejoin="round" stroke-miterlimit="10" x1="22.4" y1="24.2" x2="36.7" y2="24.2"/>
	</g>
	
		<polyline fill="none" stroke="#FFFFFF" stroke-width="1.7908" stroke-linecap="round" stroke-linejoin="round" stroke-miterlimit="10" points="
		42.1,34.9 29.5,34.9 29.5,29.5 26,29.5 26,34.9 17,34.9 17,29.5 13.4,29.5 13.4,34.9 0.9,34.9 0.9,0.9 22.4,0.9 22.4,6.3 42.1,6.3 
		42.1,34.9 	"/>
</g>
</svg>
