<?xml version="1.0" encoding="utf-8"?>
<!-- Generator: Adobe Illustrator 18.1.0, SVG Export Plug-In . SVG Version: 6.00 Build 0)  -->
<!DOCTYPE svg PUBLIC "-//W3C//DTD SVG 1.1//EN" "http://www.w3.org/Graphics/SVG/1.1/DTD/svg11.dtd">
<svg version="1.1" id="Layer_1" xmlns="http://www.w3.org/2000/svg" xmlns:xlink="http://www.w3.org/1999/xlink" x="0px" y="0px"
	 viewBox="0 0 960 560" enable-background="new 0 0 960 560" xml:space="preserve">
<g>
	<g>
		
			<path fill="none" stroke="#FFFFFF" stroke-width="2.0417" stroke-linecap="round" stroke-linejoin="round" stroke-miterlimit="10" d="
			M465.6,269.8c1.1,0,2-0.9,2-2v-3.1l-4.1-2l1.1-2v-4.1c0-1.7-1.4-3.1-3.1-3.1c-1.7,0-3.1,1.4-3.1,3.1v4.1l1.1,2l-4.1,2v3.1
			c0,1.1,0.9,2,2,2H465.6z"/>
		<g>
			
				<line fill="none" stroke="#FFFFFF" stroke-width="2.0417" stroke-linecap="round" stroke-linejoin="round" stroke-miterlimit="10" x1="473.8" y1="257.6" x2="490.1" y2="257.6"/>
			
				<line fill="none" stroke="#FFFFFF" stroke-width="2.0417" stroke-linecap="round" stroke-linejoin="round" stroke-miterlimit="10" x1="473.8" y1="263.7" x2="490.1" y2="263.7"/>
			
				<line fill="none" stroke="#FFFFFF" stroke-width="2.0417" stroke-linecap="round" stroke-linejoin="round" stroke-miterlimit="10" x1="473.8" y1="269.8" x2="490.1" y2="269.8"/>
		</g>
		
			<polyline fill="none" stroke="#FFFFFF" stroke-width="2.0417" stroke-linecap="round" stroke-linejoin="round" stroke-miterlimit="10" points="
			496.2,282.1 482,282.1 482,276 477.9,276 477.9,282.1 467.7,282.1 467.7,276 463.6,276 463.6,282.1 449.3,282.1 449.3,243.3 
			473.8,243.3 473.8,249.4 496.2,249.4 496.2,282.1 		"/>
	</g>
	<g>
		<path fill="#FFFFFF" d="M437.7,312.5H437c-0.1,0-0.2,0-0.2-0.1c-0.1,0-0.1-0.1-0.1-0.2l-1.5-3.6h-6.2l-1.5,3.6
			c0,0.1-0.1,0.1-0.1,0.2c-0.1,0-0.1,0.1-0.2,0.1h-0.7l5.1-12.5h0.9L437.7,312.5z M429.4,308h5.6l-2.5-6.3c-0.1-0.2-0.2-0.5-0.3-0.7
			c0,0.1-0.1,0.3-0.1,0.4c0,0.1-0.1,0.2-0.1,0.3L429.4,308z"/>
		<path fill="#FFFFFF" d="M446.7,300v0.8h-4.4v11.8h-0.9v-11.8H437V300H446.7z"/>
		<path fill="#FFFFFF" d="M457,300v0.8h-4.4v11.8h-0.9v-11.8h-4.4V300H457z"/>
		<path fill="#FFFFFF" d="M466.6,300v0.8H460v5.1h5.5v0.7H460v5.2h6.6l0,0.8h-7.5V300H466.6z"/>
		<path fill="#FFFFFF" d="M470,300c0,0,0.1,0.1,0.1,0.1l8.1,10.9c0-0.2,0-0.3,0-0.5V300h0.8v12.5h-0.4c-0.1,0-0.1,0-0.2,0
			s-0.1-0.1-0.1-0.1l-8.1-10.9c0,0.2,0,0.3,0,0.5v10.5h-0.8V300h0.5C469.9,300,469.9,300,470,300z"/>
		<path fill="#FFFFFF" d="M493.3,306.3c0,1-0.1,1.8-0.4,2.6c-0.3,0.8-0.7,1.4-1.2,2c-0.5,0.5-1.2,1-1.9,1.2
			c-0.7,0.3-1.5,0.4-2.4,0.4h-4.6V300h4.6c0.9,0,1.7,0.1,2.4,0.4c0.7,0.3,1.4,0.7,1.9,1.2c0.5,0.5,0.9,1.2,1.2,2
			C493.1,304.4,493.3,305.3,493.3,306.3z M492.3,306.3c0-0.9-0.1-1.7-0.4-2.3s-0.6-1.3-1-1.7c-0.4-0.5-1-0.8-1.6-1.1
			c-0.6-0.2-1.3-0.4-2.1-0.4h-3.7v11.1h3.7c0.7,0,1.4-0.1,2.1-0.4c0.6-0.2,1.2-0.6,1.6-1.1s0.8-1,1-1.7
			C492.2,307.9,492.3,307.1,492.3,306.3z"/>
		<path fill="#FFFFFF" d="M503.7,300v0.8h-6.6v5.1h5.5v0.7h-5.5v5.2h6.6l0,0.8h-7.5V300H503.7z"/>
		<path fill="#FFFFFF" d="M513.9,300v0.8h-6.6v5.1h5.5v0.7h-5.5v5.2h6.6l0,0.8h-7.5V300H513.9z"/>
		<path fill="#FFFFFF" d="M522.8,301.5c-0.1,0.1-0.1,0.2-0.2,0.2c-0.1,0-0.2-0.1-0.3-0.2c-0.1-0.1-0.3-0.2-0.5-0.4
			c-0.2-0.1-0.5-0.3-0.8-0.4c-0.3-0.1-0.7-0.2-1.1-0.2c-0.5,0-0.9,0.1-1.2,0.2c-0.3,0.1-0.6,0.3-0.9,0.5c-0.2,0.2-0.4,0.5-0.5,0.8
			c-0.1,0.3-0.2,0.6-0.2,0.9c0,0.4,0.1,0.8,0.3,1.1s0.4,0.5,0.7,0.7c0.3,0.2,0.6,0.4,1,0.5c0.4,0.1,0.8,0.3,1.2,0.4
			c0.4,0.1,0.8,0.3,1.2,0.4s0.7,0.4,1,0.6s0.5,0.5,0.7,0.9c0.2,0.3,0.3,0.8,0.3,1.3c0,0.5-0.1,1-0.3,1.5c-0.2,0.5-0.4,0.9-0.8,1.2
			c-0.3,0.3-0.8,0.6-1.3,0.8c-0.5,0.2-1.1,0.3-1.7,0.3c-0.8,0-1.5-0.1-2.1-0.4c-0.6-0.3-1.1-0.7-1.6-1.2l0.2-0.4
			c0.1-0.1,0.2-0.1,0.2-0.1c0.1,0,0.1,0,0.2,0.1c0.1,0.1,0.2,0.2,0.3,0.3c0.1,0.1,0.3,0.2,0.4,0.3c0.2,0.1,0.4,0.2,0.6,0.3
			c0.2,0.1,0.5,0.2,0.8,0.3c0.3,0.1,0.6,0.1,1,0.1c0.5,0,0.9-0.1,1.3-0.2s0.7-0.4,1-0.6s0.5-0.6,0.6-0.9c0.1-0.4,0.2-0.7,0.2-1.1
			c0-0.4-0.1-0.8-0.3-1.1c-0.2-0.3-0.4-0.5-0.7-0.7s-0.6-0.4-1-0.5s-0.8-0.3-1.2-0.4s-0.8-0.3-1.2-0.4c-0.4-0.2-0.7-0.3-1-0.6
			c-0.3-0.2-0.5-0.5-0.7-0.9s-0.3-0.8-0.3-1.3c0-0.4,0.1-0.8,0.2-1.2s0.4-0.7,0.7-1s0.7-0.5,1.1-0.7s1-0.3,1.5-0.3
			c0.6,0,1.2,0.1,1.7,0.3c0.5,0.2,1,0.5,1.4,0.9L522.8,301.5z"/>
	</g>
</g>
</svg>
