<?xml version="1.0" encoding="utf-8"?>
<!-- Generator: Adobe Illustrator 18.1.0, SVG Export Plug-In . SVG Version: 6.00 Build 0)  -->
<!DOCTYPE svg PUBLIC "-//W3C//DTD SVG 1.1//EN" "http://www.w3.org/Graphics/SVG/1.1/DTD/svg11.dtd">
<svg version="1.1" id="Layer_1" xmlns="http://www.w3.org/2000/svg" xmlns:xlink="http://www.w3.org/1999/xlink" x="0px" y="0px"
	 viewBox="0 0 25.5 39.6" enable-background="new 0 0 25.5 39.6" xml:space="preserve">
<g>
	<g>
		
			<path fill="none" stroke="#FFFFFF" stroke-width="1.0031" stroke-linecap="round" stroke-linejoin="round" stroke-miterlimit="10" d="
			M12.6,4.9l9,9.2c0.6,0.6,1.5,0.6,2.1,0c0.6-0.6,0.6-1.6,0-2.2L12.6,0.5L1.5,11.9c-0.6,0.6-0.6,1.6,0,2.2c0.6,0.6,1.5,0.6,2.1,0
			L12.6,4.9z"/>
		
			<polyline fill="none" stroke="#FFFFFF" stroke-width="1.0031" stroke-linecap="round" stroke-linejoin="round" stroke-miterlimit="10" points="
			4.1,13.6 4.1,23.6 10.1,23.6 10.1,16.6 15.1,16.6 15.1,23.6 21.1,23.6 21.1,13.7 		"/>
	</g>
	<g>
		<path fill="#FFFFFF" d="M4.8,39.5H4.4v-3H0.5v3H0v-6.3h0.5v2.9h3.9v-2.9h0.5V39.5z"/>
		<path fill="#FFFFFF" d="M12.2,36.4c0,0.5-0.1,0.9-0.2,1.3s-0.3,0.7-0.6,1s-0.6,0.5-0.9,0.6s-0.8,0.2-1.2,0.2S8.4,39.5,8,39.4
			c-0.4-0.2-0.7-0.4-0.9-0.6c-0.3-0.3-0.5-0.6-0.6-1s-0.2-0.8-0.2-1.3c0-0.5,0.1-0.9,0.2-1.3s0.3-0.7,0.6-1c0.3-0.3,0.6-0.5,0.9-0.6
			c0.4-0.2,0.8-0.2,1.2-0.2s0.8,0.1,1.2,0.2c0.4,0.2,0.7,0.4,0.9,0.6s0.5,0.6,0.6,1S12.2,35.9,12.2,36.4z M11.8,36.4
			c0-0.4-0.1-0.8-0.2-1.2c-0.1-0.3-0.3-0.6-0.5-0.9c-0.2-0.2-0.5-0.4-0.8-0.6c-0.3-0.1-0.7-0.2-1-0.2c-0.4,0-0.7,0.1-1,0.2
			c-0.3,0.1-0.6,0.3-0.8,0.6c-0.2,0.2-0.4,0.5-0.5,0.9c-0.1,0.3-0.2,0.7-0.2,1.2c0,0.4,0.1,0.8,0.2,1.2c0.1,0.3,0.3,0.6,0.5,0.9
			c0.2,0.2,0.5,0.4,0.8,0.6c0.3,0.1,0.7,0.2,1,0.2c0.4,0,0.7-0.1,1-0.2c0.3-0.1,0.6-0.3,0.8-0.6c0.2-0.2,0.4-0.5,0.5-0.9
			C11.7,37.2,11.8,36.8,11.8,36.4z"/>
		<path fill="#FFFFFF" d="M16.8,38c0,0,0-0.1,0.1-0.1c0,0,0-0.1,0.1-0.1l2.5-4.4c0,0,0-0.1,0.1-0.1c0,0,0.1,0,0.1,0h0.3v6.3h-0.4
			v-5.3c0,0,0-0.1,0-0.1c0,0,0-0.1,0-0.1L17,38.3c0,0.1-0.1,0.1-0.2,0.1h-0.1c-0.1,0-0.1,0-0.2-0.1l-2.5-4.4c0,0.1,0,0.2,0,0.2v5.3
			h-0.4v-6.3H14c0,0,0.1,0,0.1,0c0,0,0,0,0.1,0.1l2.5,4.4C16.7,37.8,16.8,37.9,16.8,38z"/>
		<path fill="#FFFFFF" d="M25.5,33.3v0.4h-3.3v2.5h2.7v0.4h-2.7v2.6h3.3l0,0.4h-3.8v-6.3H25.5z"/>
	</g>
</g>
</svg>
