<?xml version="1.0" encoding="utf-8"?>
<!-- Generator: Adobe Illustrator 18.1.0, SVG Export Plug-In . SVG Version: 6.00 Build 0)  -->
<!DOCTYPE svg PUBLIC "-//W3C//DTD SVG 1.1//EN" "http://www.w3.org/Graphics/SVG/1.1/DTD/svg11.dtd">
<svg version="1.1" id="Layer_1" xmlns="http://www.w3.org/2000/svg" xmlns:xlink="http://www.w3.org/1999/xlink" x="0px" y="0px"
	 viewBox="0 0 960 560" enable-background="new 0 0 960 560" xml:space="preserve">
<g>
	<g>
		
			<path fill="none" stroke="#FFFFFF" stroke-width="2.0061" stroke-linecap="round" stroke-linejoin="round" stroke-miterlimit="10" d="
			M475.1,247.1l17.9,18.4c1.2,1.2,3.1,1.2,4.3,0c1.2-1.2,1.2-3.2,0-4.4l-22.2-22.8l-22.2,22.8c-1.2,1.2-1.2,3.2,0,4.4
			c1.2,1.2,3.1,1.2,4.3,0L475.1,247.1z"/>
		
			<polyline fill="none" stroke="#FFFFFF" stroke-width="2.0061" stroke-linecap="round" stroke-linejoin="round" stroke-miterlimit="10" points="
			458,264.7 458,284.5 470.1,284.5 470.1,270.5 480.1,270.5 480.1,284.5 492.1,284.5 492.1,264.8 		"/>
	</g>
	<g>
		<path fill="#FFFFFF" d="M459.5,316.4h-0.9v-6h-7.8v6h-0.9v-12.5h0.9v5.8h7.8v-5.8h0.9V316.4z"/>
		<path fill="#FFFFFF" d="M474.4,310.1c0,1-0.1,1.8-0.4,2.6s-0.7,1.5-1.2,2s-1.2,1-1.9,1.3s-1.5,0.5-2.4,0.5s-1.7-0.2-2.4-0.5
			c-0.7-0.3-1.4-0.7-1.9-1.3c-0.5-0.6-0.9-1.2-1.2-2s-0.4-1.7-0.4-2.6c0-1,0.1-1.8,0.4-2.6s0.7-1.5,1.2-2c0.5-0.6,1.2-1,1.9-1.3
			c0.7-0.3,1.5-0.5,2.4-0.5s1.7,0.2,2.4,0.5c0.7,0.3,1.4,0.7,1.9,1.3s0.9,1.2,1.2,2S474.4,309.2,474.4,310.1z M473.4,310.1
			c0-0.9-0.1-1.7-0.4-2.4c-0.2-0.7-0.6-1.3-1-1.8c-0.4-0.5-1-0.9-1.6-1.1c-0.6-0.3-1.3-0.4-2.1-0.4c-0.7,0-1.4,0.1-2,0.4
			c-0.6,0.3-1.2,0.6-1.6,1.1c-0.4,0.5-0.8,1.1-1,1.8c-0.2,0.7-0.4,1.5-0.4,2.4c0,0.9,0.1,1.7,0.4,2.4c0.2,0.7,0.6,1.3,1,1.8
			c0.4,0.5,1,0.9,1.6,1.1c0.6,0.3,1.3,0.4,2,0.4c0.7,0,1.4-0.1,2.1-0.4c0.6-0.3,1.2-0.6,1.6-1.1c0.4-0.5,0.8-1.1,1-1.8
			C473.3,311.8,473.4,311,473.4,310.1z"/>
		<path fill="#FFFFFF" d="M483.5,313.3c0-0.1,0.1-0.2,0.1-0.3c0-0.1,0.1-0.2,0.1-0.3l4.9-8.7c0-0.1,0.1-0.1,0.1-0.1
			c0.1,0,0.1,0,0.2,0h0.6v12.5h-0.8v-10.7c0-0.1,0-0.1,0-0.2c0-0.1,0-0.2,0-0.2l-4.9,8.7c-0.1,0.2-0.2,0.2-0.4,0.2h-0.1
			c-0.2,0-0.3-0.1-0.4-0.2l-5.1-8.8c0,0.2,0,0.3,0,0.5v10.7h-0.8v-12.5h0.6c0.1,0,0.1,0,0.2,0c0,0,0.1,0.1,0.1,0.1l5.1,8.7
			C483.3,312.9,483.4,313.1,483.5,313.3z"/>
		<path fill="#FFFFFF" d="M500.8,303.9v0.8h-6.6v5.1h5.5v0.7h-5.5v5.2h6.6l0,0.8h-7.5v-12.5H500.8z"/>
	</g>
</g>
</svg>
