<?xml version="1.0" encoding="utf-8"?>
<!-- Generator: Adobe Illustrator 18.1.0, SVG Export Plug-In . SVG Version: 6.00 Build 0)  -->
<!DOCTYPE svg PUBLIC "-//W3C//DTD SVG 1.1//EN" "http://www.w3.org/Graphics/SVG/1.1/DTD/svg11.dtd">
<svg version="1.1" id="Layer_1" xmlns="http://www.w3.org/2000/svg" xmlns:xlink="http://www.w3.org/1999/xlink" x="0px" y="0px"
	 viewBox="256.9 0 446.2 560.1" enable-background="new 256.9 0 446.2 560.1" xml:space="preserve">
<g>
	<g>
		
			<path fill="none" stroke="#FFFFFF" stroke-width="2.0406" stroke-linecap="round" stroke-linejoin="round" stroke-miterlimit="10" d="
			M500.9,37.2V23c0-12.1-9.9-22-22-22s-22,9.9-22,22v14.2"/>
		
			<line fill="none" stroke="#FFFFFF" stroke-width="2.0406" stroke-linecap="round" stroke-linejoin="round" stroke-miterlimit="10" x1="457.6" y1="116.6" x2="457.6" y2="145.7"/>
		
			<line fill="none" stroke="#FFFFFF" stroke-width="2.0406" stroke-linecap="round" stroke-linejoin="round" stroke-miterlimit="10" x1="500.9" y1="145.7" x2="500.9" y2="116.6"/>
		
			<polyline fill="none" stroke="#FFFFFF" stroke-width="2.0406" stroke-linecap="round" stroke-linejoin="round" stroke-miterlimit="10" points="
			457.6,218.1 457.6,333.7 500.9,333.7 500.9,218.1 		"/>
		<g>
			<g>
				
					<polygon fill="none" stroke="#FFFFFF" stroke-width="2.0406" stroke-linecap="round" stroke-linejoin="round" stroke-miterlimit="10" points="
					591,116.6 341.3,116.6 356.2,80.4 341.3,44.3 591,44.3 645.7,80.4 				"/>
			</g>
			<g>
				
					<polygon fill="none" stroke="#FFFFFF" stroke-width="2.0406" stroke-linecap="round" stroke-linejoin="round" stroke-miterlimit="10" points="
					366.8,145.7 616.6,145.7 602.4,182 616.6,218.1 366.8,218.1 312.9,182 				"/>
			</g>
		</g>
	</g>
	<g>
		<path fill="#FFFFFF" d="M263.3,518.9v40.5h-6.4v-88.7h22.7c9.9,0,17.8,2.1,22.7,5.7c5,3.5,7.8,9.9,7.8,17.8c0,3.5-0.7,6.4-2.1,9.2
			c-1.4,2.8-2.8,5-5,7.1c-2.1,2.1-5,3.5-7.8,5c-2.8,1.5-6.4,2.1-10.7,2.8c0.7,0.7,2.1,1.4,2.8,2.8l30.6,38.3h-5.7
			c-0.7,0-1.4,0-2.1,0c-0.7,0-0.7-0.7-1.4-1.4l-28.4-36.2c0-0.7-0.7-0.7-0.7-1.4c0,0-0.7-0.7-1.4-0.7c-0.7,0-0.7,0-1.4-0.7
			c-0.7,0-1.4,0-2.1,0L263.3,518.9L263.3,518.9z M263.3,514h15.6c4.2,0,7.8-0.7,10.7-1.4c2.8-0.7,5.7-2.1,7.8-4.2
			c2.1-1.4,3.5-3.5,5-6.4c1.4-2.1,1.4-5,1.4-8.5c0-6.4-2.1-11.4-6.4-14.2c-4.2-2.8-9.9-4.2-17.8-4.2h-16.3V514L263.3,514z"/>
		<path fill="#FFFFFF" d="M386.7,469.9v5.7h-46.8v36.2H379v5h-39.1v36.9h46.8v5.7h-53.2v-88.6h53.3L386.7,469.9L386.7,469.9z"/>
		<path fill="#FFFFFF" d="M449.1,480.6c-0.7,0.7-0.7,1.4-1.4,1.4c-0.7,0-1.4-0.7-2.1-1.4c-0.7-0.7-2.1-1.4-3.5-2.8
			c-1.4-0.7-3.5-2.1-5.7-2.8c-2.1-0.7-5-1.4-7.8-1.4c-2.8,0-6.4,0.7-8.5,1.4c-2.1,0.7-4.2,2.1-6.4,3.5c-1.4,1.4-2.8,3.5-3.5,5.7
			c-0.7,2.2-1.4,4.2-1.4,6.4c0,2.8,0.7,5.7,2.1,7.8c1.4,2.1,2.8,3.5,5,5c2.1,1.4,4.2,2.8,7.1,3.5c2.8,0.7,5.7,2.1,8.5,2.8
			c2.8,0.7,5.7,2.1,8.5,2.8c2.8,1.4,5,2.8,7.1,4.2c2.1,1.4,3.5,3.5,5,6.4c1.4,2.1,2.1,5.7,2.1,9.2s-0.7,7.1-2.1,10.7
			c-1.4,3.5-2.8,6.4-5.7,8.5c-2.1,2.1-5.7,4.2-9.2,5.7c-3.5,1.4-7.8,2.1-12.1,2.1c-5.7,0-10.7-0.7-14.9-2.8c-4.2-2.1-7.8-5-11.4-8.5
			l1.4-2.8c0.7-0.7,1.4-0.7,1.4-0.7c0.7,0,0.7,0,1.4,0.7c0.7,0.7,1.4,1.4,2.1,2.1c0.7,0.7,2.1,1.4,2.8,2.1c0.7,0.7,2.8,1.4,4.2,2.1
			c1.4,0.7,3.5,1.4,5.7,2.1c2.1,0.7,4.2,0.7,7.1,0.7c3.5,0,6.4-0.7,9.2-1.4c2.8-0.7,5-2.8,7.1-4.2c2.1-1.4,3.5-4.2,4.2-6.4
			c0.7-2.8,1.4-5,1.4-7.8s-0.7-5.7-2.1-7.8c-1.4-2.1-2.8-3.5-5-5c-2.1-1.4-4.2-2.8-7.1-3.5c-2.8-0.7-5.7-2.1-8.5-2.8
			s-5.7-2.1-8.5-2.8c-2.8-1.4-5-2.1-7.1-4.2c-2.1-1.4-3.5-3.5-5-6.4c-1.4-2.8-2.1-5.7-2.1-9.2c0-2.8,0.7-5.7,1.4-8.5
			c1.4-2.8,2.8-5,5-7.1c2.1-2.1,5-3.5,7.8-5c3.5-1.4,7.1-2.1,10.7-2.1c4.2,0,8.5,0.7,12.1,2.1c3.5,1.4,7.1,3.5,9.9,6.4L449.1,480.6z
			"/>
		<path fill="#FFFFFF" d="M552,514.7c0,7.1-0.7,12.8-2.8,18.5c-2.1,5.7-5,10.7-8.5,14.2c-3.5,4.2-8.5,7.1-13.5,9.2
			c-5,2.1-10.7,3.5-17,3.5c-6.4,0-12.1-1.4-17-3.5c-5-2.1-9.9-5-13.5-9.2c-3.5-4.2-6.4-8.5-8.5-14.2s-2.8-12.1-2.8-18.5
			c0-7.1,0.7-12.8,2.8-18.5s5-10.7,8.5-14.2c3.5-4.2,8.5-7.1,13.5-9.2s10.7-3.5,17-3.5c6.4,0,12.1,1.4,17,3.5c5,2.1,9.9,5,13.5,9.2
			c3.5,4.2,6.4,8.5,8.5,14.2C551.3,501.9,552,507.5,552,514.7z M545.6,514.7c0-6.4-0.7-12.1-2.8-17c-2.1-4.9-4.2-9.2-7.1-12.8
			c-2.8-3.5-7.1-6.4-11.4-7.8c-4.2-2.1-9.2-2.8-14.9-2.8c-5,0-9.9,0.7-14.2,2.8c-4.2,2.1-8.5,4.2-11.4,7.8
			c-2.8,3.5-5.7,7.8-7.1,12.8c-1.4,5-2.8,10.7-2.8,17c0,6.4,0.7,12.1,2.8,17c2.1,5,4.2,9.2,7.1,12.8c2.8,3.5,7.1,6.4,11.4,7.8
			c4.2,2.1,9.2,2.8,14.2,2.8c5.7,0,9.9-0.7,14.9-2.8c4.2-2.1,8.5-4.2,11.4-7.8c2.8-3.5,5.7-7.8,7.1-12.8
			C544.2,526.7,545.6,521,545.6,514.7z"/>
		<path fill="#FFFFFF" d="M578.9,518.9v40.5h-6.4v-88.7h22.7c9.9,0,17.8,2.1,22.7,5.7c5,3.5,7.8,9.9,7.8,17.8c0,3.5-0.7,6.4-2.1,9.2
			c-1.4,2.8-2.8,5-5,7.1c-2.1,2.1-5,3.5-7.8,5c-2.8,1.5-6.4,2.1-10.7,2.8c0.7,0.7,2.1,1.4,2.8,2.8l30.6,38.3h-5.7
			c-0.7,0-1.4,0-2.1,0c-0.7,0-0.7-0.7-1.4-1.4l-28.4-36.3c0-0.7-0.7-0.7-0.7-1.4c0,0-0.7-0.7-1.4-0.7s-0.7,0-1.4-0.7
			c-0.7,0-1.4,0-2.1,0L578.9,518.9L578.9,518.9z M578.9,514h15.6c4.2,0,7.8-0.7,10.7-1.4c2.8-0.7,5.7-2.1,7.8-4.2
			c2.1-1.4,3.5-3.5,5-6.4c1.4-2.1,1.4-5,1.4-8.5c0-6.4-2.1-11.4-6.4-14.2c-4.2-2.8-9.9-4.2-17.8-4.2h-16.3V514L578.9,514z"/>
		<path fill="#FFFFFF" d="M703.1,469.9v5.7h-31.3v83h-6.4V475h-31.3v-5.8L703.1,469.9L703.1,469.9z"/>
	</g>
</g>
</svg>
