<?xml version="1.0" encoding="utf-8"?>
<!-- Generator: Adobe Illustrator 18.1.0, SVG Export Plug-In . SVG Version: 6.00 Build 0)  -->
<!DOCTYPE svg PUBLIC "-//W3C//DTD SVG 1.1//EN" "http://www.w3.org/Graphics/SVG/1.1/DTD/svg11.dtd">
<svg version="1.1" id="Layer_1" xmlns="http://www.w3.org/2000/svg" xmlns:xlink="http://www.w3.org/1999/xlink" x="0px" y="0px"
	 viewBox="0 0 960 560" enable-background="new 0 0 960 560" xml:space="preserve">
<g>
	<g>
		
			<path fill="none" stroke="#FFFFFF" stroke-width="2.024" stroke-linecap="round" stroke-linejoin="round" stroke-miterlimit="10" d="
			M485.7,255.4h4v5.2c0,8.4-6.8,15.2-15.2,15.2c-8.4,0-15.2-6.8-15.2-15.2v-5.2h4"/>
		
			<path fill="none" stroke="#FFFFFF" stroke-width="2.024" stroke-linecap="round" stroke-linejoin="round" stroke-miterlimit="10" d="
			M485.7,260.6c0,6.1-5,11.1-11.1,11.1s-11.1-5-11.1-11.1v-10.3c0-6.1,5-11.1,11.1-11.1s11.1,5,11.1,11.1V260.6z"/>
		
			<line fill="none" stroke="#FFFFFF" stroke-width="2.024" stroke-linecap="round" stroke-linejoin="round" stroke-miterlimit="10" x1="479.6" y1="247.3" x2="479.6" y2="263.6"/>
		
			<line fill="none" stroke="#FFFFFF" stroke-width="2.024" stroke-linecap="round" stroke-linejoin="round" stroke-miterlimit="10" x1="463.5" y1="255.4" x2="471.6" y2="255.4"/>
		
			<line fill="none" stroke="#FFFFFF" stroke-width="2.024" stroke-linecap="round" stroke-linejoin="round" stroke-miterlimit="10" x1="463.5" y1="251.3" x2="471.6" y2="251.3"/>
		
			<line fill="none" stroke="#FFFFFF" stroke-width="2.024" stroke-linecap="round" stroke-linejoin="round" stroke-miterlimit="10" x1="464.5" y1="247.3" x2="471.6" y2="247.3"/>
		
			<line fill="none" stroke="#FFFFFF" stroke-width="2.024" stroke-linecap="round" stroke-linejoin="round" stroke-miterlimit="10" x1="464.5" y1="263.5" x2="471.6" y2="263.5"/>
		
			<line fill="none" stroke="#FFFFFF" stroke-width="2.024" stroke-linecap="round" stroke-linejoin="round" stroke-miterlimit="10" x1="463.5" y1="259.4" x2="471.6" y2="259.4"/>
		
			<line fill="none" stroke="#FFFFFF" stroke-width="2.024" stroke-linecap="round" stroke-linejoin="round" stroke-miterlimit="10" x1="474.6" y1="279.6" x2="474.6" y2="276.6"/>
		
			<path fill="none" stroke="#FFFFFF" stroke-width="2.024" stroke-linecap="round" stroke-linejoin="round" stroke-miterlimit="10" d="
			M461.4,283.7c0-2.2,1.8-4,4-4h18.2c2.2,0,4,1.8,4,4v2h-26.3V283.7z"/>
	</g>
	<g>
		<path fill="#FFFFFF" d="M441.8,304.2c-0.1,0.1-0.1,0.2-0.2,0.2c-0.1,0-0.2-0.1-0.3-0.2c-0.1-0.1-0.3-0.2-0.5-0.4
			c-0.2-0.1-0.5-0.3-0.8-0.4c-0.3-0.1-0.7-0.2-1.1-0.2c-0.5,0-0.9,0.1-1.2,0.2s-0.6,0.3-0.9,0.5c-0.2,0.2-0.4,0.5-0.5,0.8
			c-0.1,0.3-0.2,0.6-0.2,0.9c0,0.4,0.1,0.8,0.3,1.1c0.2,0.3,0.4,0.5,0.7,0.7c0.3,0.2,0.6,0.4,1,0.5c0.4,0.1,0.8,0.3,1.2,0.4
			c0.4,0.1,0.8,0.3,1.2,0.4c0.4,0.2,0.7,0.4,1,0.6s0.5,0.5,0.7,0.9c0.2,0.3,0.3,0.8,0.3,1.3c0,0.5-0.1,1-0.3,1.5
			c-0.2,0.5-0.4,0.9-0.8,1.2c-0.3,0.3-0.8,0.6-1.3,0.8c-0.5,0.2-1.1,0.3-1.7,0.3c-0.8,0-1.5-0.1-2.1-0.4c-0.6-0.3-1.1-0.7-1.6-1.2
			l0.2-0.4c0.1-0.1,0.2-0.1,0.2-0.1c0.1,0,0.1,0,0.2,0.1c0.1,0.1,0.2,0.2,0.3,0.3c0.1,0.1,0.3,0.2,0.4,0.3c0.2,0.1,0.4,0.2,0.6,0.3
			c0.2,0.1,0.5,0.2,0.8,0.3c0.3,0.1,0.6,0.1,1,0.1c0.5,0,0.9-0.1,1.3-0.2s0.7-0.4,1-0.6s0.5-0.6,0.6-0.9c0.1-0.4,0.2-0.7,0.2-1.1
			c0-0.4-0.1-0.8-0.3-1.1c-0.2-0.3-0.4-0.5-0.7-0.7s-0.6-0.4-1-0.5c-0.4-0.1-0.8-0.3-1.2-0.4c-0.4-0.1-0.8-0.3-1.2-0.4
			c-0.4-0.2-0.7-0.3-1-0.6c-0.3-0.2-0.5-0.5-0.7-0.9c-0.2-0.4-0.3-0.8-0.3-1.3c0-0.4,0.1-0.8,0.2-1.2s0.4-0.7,0.7-1s0.7-0.5,1.1-0.7
			c0.5-0.2,1-0.3,1.5-0.3c0.6,0,1.2,0.1,1.7,0.3c0.5,0.2,1,0.5,1.4,0.9L441.8,304.2z"/>
		<path fill="#FFFFFF" d="M446.1,310.2v5h-0.9v-12.5h3.2c1.5,0,2.6,0.3,3.3,1c0.7,0.6,1.1,1.6,1.1,2.8c0,0.5-0.1,1.1-0.3,1.5
			s-0.5,0.9-0.9,1.2c-0.4,0.3-0.8,0.6-1.4,0.8s-1.2,0.3-1.9,0.3H446.1z M446.1,309.4h2.3c0.5,0,1-0.1,1.5-0.2
			c0.4-0.2,0.8-0.4,1.1-0.6c0.3-0.3,0.5-0.6,0.7-1c0.2-0.4,0.2-0.8,0.2-1.2c0-1-0.3-1.7-0.9-2.2c-0.6-0.5-1.5-0.8-2.6-0.8h-2.3
			V309.4z"/>
		<path fill="#FFFFFF" d="M462.9,302.7v0.8h-6.6v5.1h5.5v0.7h-5.5v5.2h6.6l0,0.8h-7.5v-12.5H462.9z"/>
		<path fill="#FFFFFF" d="M475.2,315.2h-0.7c-0.1,0-0.2,0-0.2-0.1c-0.1,0-0.1-0.1-0.1-0.2l-1.5-3.6h-6.2L465,315
			c0,0.1-0.1,0.1-0.1,0.2c-0.1,0-0.1,0.1-0.2,0.1H464l5.1-12.5h0.9L475.2,315.2z M466.8,310.7h5.6l-2.5-6.3
			c-0.1-0.2-0.2-0.5-0.3-0.7c0,0.1-0.1,0.3-0.1,0.4c0,0.1-0.1,0.2-0.1,0.3L466.8,310.7z"/>
		<path fill="#FFFFFF" d="M478.2,308.5h0.7c0.1,0,0.2,0,0.3,0c0.1,0,0.2,0,0.2,0s0.1-0.1,0.2-0.1c0.1,0,0.1-0.1,0.2-0.2l5.1-5.2
			c0.1-0.1,0.2-0.2,0.3-0.2c0.1,0,0.2-0.1,0.3-0.1h0.7l-5.5,5.6c-0.1,0.1-0.2,0.2-0.3,0.3c-0.1,0.1-0.2,0.1-0.3,0.2
			c0.1,0,0.2,0.1,0.3,0.2c0.1,0.1,0.2,0.2,0.3,0.3l5.8,6h-0.7c-0.2,0-0.3,0-0.3-0.1c-0.1,0-0.1-0.1-0.2-0.2l-5.3-5.4
			c-0.1-0.1-0.1-0.1-0.2-0.2c-0.1,0-0.1-0.1-0.2-0.1c-0.1,0-0.1-0.1-0.2-0.1c-0.1,0-0.2,0-0.3,0h-0.8v6h-0.9v-12.5h0.9V308.5z"/>
		<path fill="#FFFFFF" d="M496,302.7v0.8h-6.6v5.1h5.5v0.7h-5.5v5.2h6.6l0,0.8h-7.5v-12.5H496z"/>
		<path fill="#FFFFFF" d="M499.7,309.5v5.7h-0.9v-12.5h3.2c1.4,0,2.5,0.3,3.2,0.8s1.1,1.4,1.1,2.5c0,0.5-0.1,0.9-0.3,1.3
			s-0.4,0.7-0.7,1s-0.7,0.5-1.1,0.7c-0.4,0.2-0.9,0.3-1.5,0.4c0.1,0.1,0.3,0.2,0.4,0.4l4.3,5.4h-0.8c-0.1,0-0.2,0-0.3,0
			c-0.1,0-0.1-0.1-0.2-0.2l-4-5.1c0-0.1-0.1-0.1-0.1-0.2c0,0-0.1-0.1-0.2-0.1c-0.1,0-0.1,0-0.2-0.1c-0.1,0-0.2,0-0.3,0H499.7z
			 M499.7,308.9h2.2c0.6,0,1.1-0.1,1.5-0.2c0.4-0.1,0.8-0.3,1.1-0.6c0.3-0.2,0.5-0.5,0.7-0.9c0.2-0.3,0.2-0.7,0.2-1.2
			c0-0.9-0.3-1.6-0.9-2s-1.4-0.6-2.5-0.6h-2.3V308.9z"/>
		<path fill="#FFFFFF" d="M515.6,304.2c-0.1,0.1-0.1,0.2-0.2,0.2c-0.1,0-0.2-0.1-0.3-0.2s-0.3-0.2-0.5-0.4s-0.5-0.3-0.8-0.4
			s-0.7-0.2-1.1-0.2s-0.9,0.1-1.2,0.2c-0.3,0.1-0.6,0.3-0.9,0.5c-0.2,0.2-0.4,0.5-0.5,0.8s-0.2,0.6-0.2,0.9c0,0.4,0.1,0.8,0.3,1.1
			c0.2,0.3,0.4,0.5,0.7,0.7c0.3,0.2,0.6,0.4,1,0.5s0.8,0.3,1.2,0.4c0.4,0.1,0.8,0.3,1.2,0.4c0.4,0.2,0.7,0.4,1,0.6s0.5,0.5,0.7,0.9
			c0.2,0.3,0.3,0.8,0.3,1.3c0,0.5-0.1,1-0.3,1.5c-0.2,0.5-0.4,0.9-0.8,1.2c-0.3,0.3-0.8,0.6-1.3,0.8c-0.5,0.2-1.1,0.3-1.7,0.3
			c-0.8,0-1.5-0.1-2.1-0.4s-1.1-0.7-1.6-1.2l0.2-0.4c0.1-0.1,0.2-0.1,0.2-0.1c0.1,0,0.1,0,0.2,0.1c0.1,0.1,0.2,0.2,0.3,0.3
			c0.1,0.1,0.3,0.2,0.4,0.3s0.4,0.2,0.6,0.3c0.2,0.1,0.5,0.2,0.8,0.3c0.3,0.1,0.6,0.1,1,0.1c0.5,0,0.9-0.1,1.3-0.2s0.7-0.4,1-0.6
			s0.5-0.6,0.6-0.9c0.1-0.4,0.2-0.7,0.2-1.1c0-0.4-0.1-0.8-0.3-1.1s-0.4-0.5-0.7-0.7s-0.6-0.4-1-0.5c-0.4-0.1-0.8-0.3-1.2-0.4
			c-0.4-0.1-0.8-0.3-1.2-0.4s-0.7-0.3-1-0.6c-0.3-0.2-0.5-0.5-0.7-0.9c-0.2-0.4-0.3-0.8-0.3-1.3c0-0.4,0.1-0.8,0.2-1.2
			s0.4-0.7,0.7-1s0.7-0.5,1.1-0.7c0.5-0.2,1-0.3,1.5-0.3c0.6,0,1.2,0.1,1.7,0.3c0.5,0.2,1,0.5,1.4,0.9L515.6,304.2z"/>
	</g>
</g>
</svg>
