<?xml version="1.0" encoding="utf-8"?>
<!-- Generator: Adobe Illustrator 18.1.0, SVG Export Plug-In . SVG Version: 6.00 Build 0)  -->
<!DOCTYPE svg PUBLIC "-//W3C//DTD SVG 1.1//EN" "http://www.w3.org/Graphics/SVG/1.1/DTD/svg11.dtd">
<svg version="1.1" id="Layer_1" xmlns="http://www.w3.org/2000/svg" xmlns:xlink="http://www.w3.org/1999/xlink" x="0px" y="0px"
	 viewBox="0 0 32.4 48.6" enable-background="new 0 0 32.4 48.6" xml:space="preserve">
<g>
	<g>
		
			<path fill="none" stroke="#FFFFFF" stroke-width="2.024" stroke-linecap="round" stroke-linejoin="round" stroke-miterlimit="10" d="
			M27.3,17.2h4v5.2c0,8.4-6.8,15.2-15.2,15.2C7.8,37.6,1,30.8,1,22.4v-5.2h4"/>
		
			<path fill="none" stroke="#FFFFFF" stroke-width="2.024" stroke-linecap="round" stroke-linejoin="round" stroke-miterlimit="10" d="
			M27.3,22.4c0,6.1-5,11.1-11.1,11.1s-11.1-5-11.1-11.1V12.1C5.1,6,10,1,16.2,1s11.1,5,11.1,11.1V22.4z"/>
		
			<line fill="none" stroke="#FFFFFF" stroke-width="2.024" stroke-linecap="round" stroke-linejoin="round" stroke-miterlimit="10" x1="21.3" y1="9.1" x2="21.3" y2="25.5"/>
		
			<line fill="none" stroke="#FFFFFF" stroke-width="2.024" stroke-linecap="round" stroke-linejoin="round" stroke-miterlimit="10" x1="5.1" y1="17.2" x2="13.2" y2="17.2"/>
		
			<line fill="none" stroke="#FFFFFF" stroke-width="2.024" stroke-linecap="round" stroke-linejoin="round" stroke-miterlimit="10" x1="5.1" y1="13.2" x2="13.2" y2="13.2"/>
		
			<line fill="none" stroke="#FFFFFF" stroke-width="2.024" stroke-linecap="round" stroke-linejoin="round" stroke-miterlimit="10" x1="6.1" y1="9.1" x2="13.2" y2="9.1"/>
		
			<line fill="none" stroke="#FFFFFF" stroke-width="2.024" stroke-linecap="round" stroke-linejoin="round" stroke-miterlimit="10" x1="6.1" y1="25.3" x2="13.2" y2="25.3"/>
		
			<line fill="none" stroke="#FFFFFF" stroke-width="2.024" stroke-linecap="round" stroke-linejoin="round" stroke-miterlimit="10" x1="5.1" y1="21.3" x2="13.2" y2="21.3"/>
		
			<line fill="none" stroke="#FFFFFF" stroke-width="2.024" stroke-linecap="round" stroke-linejoin="round" stroke-miterlimit="10" x1="16.2" y1="41.5" x2="16.2" y2="38.5"/>
		
			<path fill="none" stroke="#FFFFFF" stroke-width="2.024" stroke-linecap="round" stroke-linejoin="round" stroke-miterlimit="10" d="
			M3,45.5c0-2.2,1.8-4,4-4h18.2c2.2,0,4,1.8,4,4v2H3V45.5z"/>
	</g>
</g>
</svg>
