<?xml version="1.0" encoding="utf-8"?>
<!-- Generator: Adobe Illustrator 18.1.0, SVG Export Plug-In . SVG Version: 6.00 Build 0)  -->
<!DOCTYPE svg PUBLIC "-//W3C//DTD SVG 1.1//EN" "http://www.w3.org/Graphics/SVG/1.1/DTD/svg11.dtd">
<svg version="1.1" id="Layer_1" xmlns="http://www.w3.org/2000/svg" xmlns:xlink="http://www.w3.org/1999/xlink" x="0px" y="0px"
	 viewBox="0 0 960 560" enable-background="new 0 0 960 560" xml:space="preserve">
<g>
	<g>
		
			<line fill="none" stroke="#FFFFFF" stroke-width="2.1753" stroke-linecap="round" stroke-linejoin="round" stroke-miterlimit="10" x1="458.3" y1="288.3" x2="458.3" y2="242.6"/>
		
			<line fill="none" stroke="#FFFFFF" stroke-width="2.1753" stroke-linecap="round" stroke-linejoin="round" stroke-miterlimit="10" x1="475.7" y1="268.7" x2="458.3" y2="268.7"/>
		
			<line fill="none" stroke="#FFFFFF" stroke-width="2.1753" stroke-linecap="round" stroke-linejoin="round" stroke-miterlimit="10" x1="458.3" y1="246.9" x2="475.7" y2="246.9"/>
		
			<path fill="none" stroke="#FFFFFF" stroke-width="2.1753" stroke-linecap="round" stroke-linejoin="round" stroke-miterlimit="10" d="
			M475.7,246.9c1.2,0,2.2,1,2.2,2.2v21.8c0-1.2-1-2.2-2.2-2.2"/>
		
			<polyline fill="none" stroke="#FFFFFF" stroke-width="2.1753" stroke-linecap="round" stroke-linejoin="round" stroke-miterlimit="10" points="
			477.9,251.3 497.5,251.3 497.5,273 477.9,273 477.9,268.7 		"/>
		
			<circle fill="none" stroke="#FFFFFF" stroke-width="2.1753" stroke-linecap="round" stroke-linejoin="round" stroke-miterlimit="10" cx="458.3" cy="240.4" r="2.2"/>
	</g>
	<g>
		<path fill="#FFFFFF" d="M430.9,304.1h0.8c0.2,0,0.3,0.1,0.3,0.2l3.2,10.3c0.1,0.2,0.1,0.5,0.2,0.8c0-0.1,0.1-0.3,0.1-0.4
			c0-0.1,0.1-0.3,0.1-0.4l3.5-10.3c0-0.1,0.1-0.1,0.1-0.2c0.1,0,0.1-0.1,0.2-0.1h0.2c0.1,0,0.2,0,0.2,0.1s0.1,0.1,0.1,0.2l3.5,10.3
			c0,0.1,0.1,0.2,0.1,0.4c0,0.1,0.1,0.3,0.1,0.4c0-0.1,0.1-0.3,0.1-0.4c0-0.1,0.1-0.3,0.1-0.4l3.2-10.3c0-0.1,0.1-0.1,0.1-0.2
			c0.1,0,0.1-0.1,0.2-0.1h0.7l-3.9,12.5h-0.8l-3.7-10.9c0-0.1-0.1-0.3-0.1-0.5c0,0.2-0.1,0.3-0.1,0.5l-3.7,10.9h-0.8L430.9,304.1z"
			/>
		<path fill="#FFFFFF" d="M457.8,304.1v0.8h-6.6v5.1h5.5v0.7h-5.5v5.2h6.6l0,0.8h-7.5v-12.5H457.8z"/>
		<path fill="#FFFFFF" d="M461.5,315.8h5.9v0.8h-6.8v-12.5h0.9V315.8z"/>
		<path fill="#FFFFFF" d="M477.8,314.5c0.1,0,0.1,0,0.2,0.1l0.4,0.4c-0.3,0.3-0.5,0.5-0.8,0.7c-0.3,0.2-0.6,0.4-1,0.6
			c-0.4,0.2-0.8,0.3-1.2,0.4c-0.4,0.1-0.9,0.1-1.4,0.1c-0.9,0-1.7-0.2-2.4-0.5c-0.7-0.3-1.3-0.7-1.9-1.3c-0.5-0.6-0.9-1.2-1.2-2
			s-0.4-1.7-0.4-2.6c0-1,0.1-1.8,0.4-2.6c0.3-0.8,0.7-1.5,1.2-2c0.5-0.6,1.2-1,1.9-1.3c0.7-0.3,1.6-0.5,2.5-0.5
			c0.9,0,1.6,0.1,2.3,0.4c0.7,0.3,1.3,0.6,1.8,1.1l-0.3,0.4c0,0.1-0.1,0.1-0.2,0.1c-0.1,0-0.2-0.1-0.3-0.2s-0.4-0.3-0.7-0.4
			s-0.6-0.3-1.1-0.4s-0.9-0.2-1.5-0.2c-0.8,0-1.4,0.1-2.1,0.4c-0.6,0.3-1.2,0.6-1.6,1.1c-0.5,0.5-0.8,1.1-1.1,1.8
			c-0.3,0.7-0.4,1.5-0.4,2.3c0,0.9,0.1,1.7,0.4,2.4c0.3,0.7,0.6,1.3,1.1,1.8c0.4,0.5,1,0.9,1.6,1.1c0.6,0.3,1.3,0.4,2,0.4
			c0.4,0,0.8,0,1.2-0.1s0.7-0.1,1-0.3c0.3-0.1,0.6-0.3,0.8-0.4c0.3-0.2,0.5-0.4,0.8-0.6C477.7,314.6,477.7,314.5,477.8,314.5
			C477.8,314.5,477.8,314.5,477.8,314.5z"/>
		<path fill="#FFFFFF" d="M491.7,310.3c0,1-0.1,1.8-0.4,2.6c-0.3,0.8-0.7,1.5-1.2,2s-1.2,1-1.9,1.3c-0.7,0.3-1.5,0.5-2.4,0.5
			s-1.7-0.2-2.4-0.5c-0.7-0.3-1.4-0.7-1.9-1.3s-0.9-1.2-1.2-2c-0.3-0.8-0.4-1.7-0.4-2.6c0-1,0.1-1.8,0.4-2.6c0.3-0.8,0.7-1.5,1.2-2
			s1.2-1,1.9-1.3c0.7-0.3,1.5-0.5,2.4-0.5s1.7,0.2,2.4,0.5s1.4,0.7,1.9,1.3s0.9,1.2,1.2,2C491.5,308.5,491.7,309.4,491.7,310.3z
			 M490.7,310.3c0-0.9-0.1-1.7-0.4-2.4s-0.6-1.3-1-1.8c-0.4-0.5-1-0.9-1.6-1.1c-0.6-0.3-1.3-0.4-2.1-0.4c-0.7,0-1.4,0.1-2,0.4
			s-1.2,0.6-1.6,1.1c-0.4,0.5-0.8,1.1-1,1.8c-0.2,0.7-0.4,1.5-0.4,2.4c0,0.9,0.1,1.7,0.4,2.4c0.2,0.7,0.6,1.3,1,1.8
			c0.4,0.5,1,0.9,1.6,1.1s1.3,0.4,2,0.4c0.8,0,1.4-0.1,2.1-0.4c0.6-0.3,1.2-0.6,1.6-1.1c0.4-0.5,0.8-1.1,1-1.8
			S490.7,311.2,490.7,310.3z"/>
		<path fill="#FFFFFF" d="M500.8,313.5c0-0.1,0.1-0.2,0.1-0.3c0-0.1,0.1-0.2,0.1-0.3l4.9-8.7c0-0.1,0.1-0.1,0.1-0.1s0.1,0,0.2,0h0.6
			v12.5h-0.8v-10.7c0-0.1,0-0.1,0-0.2c0-0.1,0-0.2,0-0.2l-4.9,8.7c-0.1,0.2-0.2,0.2-0.4,0.2h-0.1c-0.2,0-0.3-0.1-0.4-0.2l-5.1-8.8
			c0,0.2,0,0.3,0,0.5v10.7h-0.8v-12.5h0.6c0.1,0,0.1,0,0.2,0c0,0,0.1,0.1,0.1,0.1l5.1,8.7C500.7,313.1,500.7,313.3,500.8,313.5z"/>
		<path fill="#FFFFFF" d="M518.1,304.1v0.8h-6.6v5.1h5.5v0.7h-5.5v5.2h6.6l0,0.8h-7.5v-12.5H518.1z"/>
	</g>
</g>
</svg>
